<svg width="352" height="246" viewBox="0 0 352 246" fill="none" xmlns="http://www.w3.org/2000/svg">
    <path d="M238.987 0H0V47.616H238.987V0Z" transform="translate(41.5064 1)" fill="#EFEFEF" stroke="#B5B5B5" stroke-miterlimit="10"/>
    <path d="M0 0L237.975 46.624" transform="translate(42.0126 1.49609)" stroke="#B5B5B5" stroke-miterlimit="10"/>
    <path d="M237.975 0L0 46.624" transform="translate(42.0126 1.49609)" stroke="#B5B5B5" stroke-miterlimit="10"/>
    <path opacity="0.8" d="M240 0H0V14.384H240V0Z" transform="translate(41 48.616)" fill="#D81D1D"/>
    <path d="M148 0H0V70H148V0Z" transform="translate(41 87.5)" fill="#EFEFEF" stroke="#B5B5B5" stroke-miterlimit="10"/>
    <path d="M0 0L146.979 69" transform="translate(41.5103 88)" stroke="#B5B5B5" stroke-miterlimit="10"/>
    <path d="M146.979 0L0 69" transform="translate(41.5103 88)" stroke="#B5B5B5" stroke-miterlimit="10"/>
    <path opacity="0.8" d="M15.3103 0H0V71H15.3103V0Z" transform="translate(173.69 87)" fill="#D81D1D"/>
    <path d="M148 0H0V70H148V0Z" transform="translate(41 175.5)" fill="#EFEFEF" stroke="#B5B5B5" stroke-miterlimit="10"/>
    <path d="M0 0L146.979 69" transform="translate(41.5103 176)" stroke="#B5B5B5" stroke-miterlimit="10"/>
    <path d="M146.979 0L0 69" transform="translate(41.5103 176)" stroke="#B5B5B5" stroke-miterlimit="10"/>
    <path opacity="0.8" d="M15.3103 0H0V71H15.3103V0Z" transform="translate(173.69 175)" fill="#D81D1D"/>
    <path d="M78.375 0H0V150H78.375V0Z" transform="translate(272.625 95.5)" fill="#EFEFEF" stroke="#B5B5B5" stroke-miterlimit="10"/>
    <path d="M77.3438 0L0 149" transform="translate(273.141 96)" stroke="#B5B5B5" stroke-miterlimit="10"/>
    <path d="M0 0L77.3438 149" transform="translate(273.141 96)" stroke="#B5B5B5" stroke-miterlimit="10"/>
    <path opacity="0.8" d="M20.625 0H0V151H20.625V0Z" transform="translate(252 95)" fill="#D81D1D"/>
    <path d="M7.63827 10.664C8.56227 11.036 9.23427 11.474 9.65427 11.978C10.0863 12.47 10.3023 13.106 10.3023 13.886C10.3023 14.546 10.1343 15.128 9.79827 15.632C9.47427 16.124 9.01227 16.508 8.41227 16.784C7.82427 17.06 7.14627 17.198 6.37827 17.198C5.61027 17.198 4.93227 17.06 4.34427 16.784C3.76827 16.508 3.31827 16.124 2.99427 15.632C2.68227 15.128 2.52627 14.552 2.52627 13.904C2.52627 12.368 3.38427 11.258 5.10027 10.574C4.39227 10.25 3.87027 9.878 3.53427 9.458C3.21027 9.026 3.04827 8.48 3.04827 7.82C3.04827 7.208 3.20427 6.674 3.51627 6.218C3.82827 5.762 4.24227 5.42 4.75827 5.192C5.27427 4.952 5.82627 4.832 6.41427 4.832C7.00227 4.832 7.55427 4.946 8.07027 5.174C8.58627 5.402 9.00027 5.738 9.31227 6.182C9.63627 6.626 9.79827 7.166 9.79827 7.802C9.79827 8.426 9.62427 8.966 9.27627 9.422C8.92827 9.866 8.38227 10.28 7.63827 10.664ZM4.09227 7.838C4.09227 8.414 4.25427 8.87 4.57827 9.206C4.91427 9.542 5.49027 9.86 6.30627 10.16L6.86427 10.358C7.53627 9.998 8.01627 9.626 8.30427 9.242C8.60427 8.858 8.75427 8.39 8.75427 7.838C8.75427 7.154 8.53827 6.62 8.10627 6.236C7.68627 5.852 7.12227 5.66 6.41427 5.66C5.73027 5.66 5.17227 5.852 4.74027 6.236C4.30827 6.62 4.09227 7.154 4.09227 7.838ZM6.39627 16.316C7.24827 16.316 7.92627 16.106 8.43027 15.686C8.94627 15.254 9.20427 14.654 9.20427 13.886C9.20427 13.406 9.11427 13.01 8.93427 12.698C8.75427 12.374 8.47827 12.098 8.10627 11.87C7.73427 11.63 7.21227 11.384 6.54027 11.132L5.92827 10.898C5.12427 11.21 4.53627 11.612 4.16427 12.104C3.80427 12.584 3.62427 13.184 3.62427 13.904C3.62427 14.672 3.87627 15.266 4.38027 15.686C4.88427 16.106 5.55627 16.316 6.39627 16.316ZM16.2078 4.832C17.4438 4.832 18.3798 5.36 19.0158 6.416C19.6518 7.46 19.9698 8.996 19.9698 11.024C19.9698 13.04 19.6458 14.576 18.9978 15.632C18.3618 16.676 17.4318 17.198 16.2078 17.198C14.9718 17.198 14.0358 16.676 13.3998 15.632C12.7638 14.576 12.4458 13.034 12.4458 11.006C12.4458 8.978 12.7638 7.442 13.3998 6.398C14.0358 5.354 14.9718 4.832 16.2078 4.832ZM16.2078 5.696C14.4198 5.696 13.5258 7.466 13.5258 11.006C13.5258 14.558 14.4198 16.334 16.2078 16.334C17.0838 16.334 17.7438 15.902 18.1878 15.038C18.6438 14.174 18.8718 12.836 18.8718 11.024C18.8718 9.212 18.6438 7.874 18.1878 7.01C17.7438 6.134 17.0838 5.696 16.2078 5.696ZM32.1343 4.346L32.9083 4.832L24.5563 17.432L23.8003 16.928L32.1343 4.346ZM24.8083 4.832C25.6123 4.832 26.2603 5.096 26.7523 5.624C27.2443 6.152 27.4903 6.86 27.4903 7.748C27.4903 8.636 27.2443 9.35 26.7523 9.89C26.2723 10.418 25.6243 10.682 24.8083 10.682C24.0043 10.682 23.3503 10.418 22.8463 9.89C22.3543 9.362 22.1083 8.654 22.1083 7.766C22.1083 6.878 22.3543 6.17 22.8463 5.642C23.3383 5.102 23.9923 4.832 24.8083 4.832ZM24.8083 5.588C24.2083 5.588 23.7703 5.792 23.4943 6.2C23.2183 6.608 23.0803 7.13 23.0803 7.766C23.0803 8.39 23.2183 8.906 23.4943 9.314C23.7703 9.722 24.2083 9.926 24.8083 9.926C25.4083 9.926 25.8403 9.722 26.1043 9.314C26.3803 8.906 26.5183 8.384 26.5183 7.748C26.5183 7.124 26.3803 6.608 26.1043 6.2C25.8403 5.792 25.4083 5.588 24.8083 5.588ZM31.7743 11.348C32.5783 11.348 33.2263 11.612 33.7183 12.14C34.2223 12.668 34.4743 13.37 34.4743 14.246C34.4743 15.146 34.2283 15.866 33.7363 16.406C33.2443 16.934 32.5903 17.198 31.7743 17.198C30.9823 17.198 30.3343 16.934 29.8303 16.406C29.3383 15.866 29.0923 15.158 29.0923 14.282C29.0923 13.382 29.3323 12.668 29.8123 12.14C30.3043 11.612 30.9583 11.348 31.7743 11.348ZM31.7743 12.104C31.1863 12.104 30.7543 12.308 30.4783 12.716C30.2023 13.124 30.0643 13.646 30.0643 14.282C30.0643 14.906 30.2023 15.422 30.4783 15.83C30.7543 16.238 31.1863 16.442 31.7743 16.442C32.3743 16.442 32.8123 16.238 33.0883 15.83C33.3643 15.422 33.5023 14.894 33.5023 14.246C33.5023 13.634 33.3643 13.124 33.0883 12.716C32.8123 12.308 32.3743 12.104 31.7743 12.104Z" transform="translate(0 1)" fill="#1A1A1A"/>
    <path d="M9.10081 5.03V5.84L4.38481 17.144L3.41281 16.82L8.02081 5.912H2.42281V5.03H9.10081ZM16.7138 5.894H11.8538V9.98C12.5138 9.608 13.1978 9.422 13.9058 9.422C14.9378 9.422 15.7538 9.758 16.3538 10.43C16.9658 11.09 17.2718 11.996 17.2718 13.148C17.2718 13.928 17.1098 14.63 16.7858 15.254C16.4738 15.866 16.0238 16.346 15.4358 16.694C14.8598 17.03 14.1878 17.198 13.4198 17.198C12.0878 17.198 10.9598 16.718 10.0358 15.758L10.6838 15.128C11.0678 15.536 11.4758 15.836 11.9078 16.028C12.3398 16.22 12.8438 16.316 13.4198 16.316C14.2718 16.316 14.9438 16.034 15.4358 15.47C15.9278 14.894 16.1738 14.114 16.1738 13.13C16.1738 12.17 15.9458 11.456 15.4898 10.988C15.0458 10.508 14.4398 10.268 13.6718 10.268C13.2878 10.268 12.9458 10.316 12.6458 10.412C12.3578 10.496 12.0338 10.64 11.6738 10.844H10.8458V5.03H16.8758L16.7138 5.894ZM28.8238 4.346L29.5978 4.832L21.2458 17.432L20.4897 16.928L28.8238 4.346ZM21.4978 4.832C22.3018 4.832 22.9498 5.096 23.4418 5.624C23.9338 6.152 24.1798 6.86 24.1798 7.748C24.1798 8.636 23.9338 9.35 23.4418 9.89C22.9618 10.418 22.3138 10.682 21.4978 10.682C20.6938 10.682 20.0398 10.418 19.5358 9.89C19.0438 9.362 18.7978 8.654 18.7978 7.766C18.7978 6.878 19.0438 6.17 19.5358 5.642C20.0278 5.102 20.6818 4.832 21.4978 4.832ZM21.4978 5.588C20.8978 5.588 20.4598 5.792 20.1838 6.2C19.9078 6.608 19.7698 7.13 19.7698 7.766C19.7698 8.39 19.9078 8.906 20.1838 9.314C20.4598 9.722 20.8978 9.926 21.4978 9.926C22.0978 9.926 22.5298 9.722 22.7938 9.314C23.0698 8.906 23.2078 8.384 23.2078 7.748C23.2078 7.124 23.0698 6.608 22.7938 6.2C22.5298 5.792 22.0978 5.588 21.4978 5.588ZM28.4638 11.348C29.2678 11.348 29.9158 11.612 30.4078 12.14C30.9118 12.668 31.1638 13.37 31.1638 14.246C31.1638 15.146 30.9178 15.866 30.4258 16.406C29.9338 16.934 29.2798 17.198 28.4638 17.198C27.6718 17.198 27.0238 16.934 26.5198 16.406C26.0278 15.866 25.7818 15.158 25.7818 14.282C25.7818 13.382 26.0218 12.668 26.5018 12.14C26.9938 11.612 27.6478 11.348 28.4638 11.348ZM28.4638 12.104C27.8758 12.104 27.4438 12.308 27.1678 12.716C26.8918 13.124 26.7538 13.646 26.7538 14.282C26.7538 14.906 26.8918 15.422 27.1678 15.83C27.4438 16.238 27.8758 16.442 28.4638 16.442C29.0638 16.442 29.5018 16.238 29.7778 15.83C30.0538 15.422 30.1918 14.894 30.1918 14.246C30.1918 13.634 30.0538 13.124 29.7778 12.716C29.5018 12.308 29.0638 12.104 28.4638 12.104Z" transform="translate(0 87)" fill="#1A1A1A"/>
    <path d="M9.10081 5.03V5.84L4.38481 17.144L3.41281 16.82L8.02081 5.912H2.42281V5.03H9.10081ZM16.7138 5.894H11.8538V9.98C12.5138 9.608 13.1978 9.422 13.9058 9.422C14.9378 9.422 15.7538 9.758 16.3538 10.43C16.9658 11.09 17.2718 11.996 17.2718 13.148C17.2718 13.928 17.1098 14.63 16.7858 15.254C16.4738 15.866 16.0238 16.346 15.4358 16.694C14.8598 17.03 14.1878 17.198 13.4198 17.198C12.0878 17.198 10.9598 16.718 10.0358 15.758L10.6838 15.128C11.0678 15.536 11.4758 15.836 11.9078 16.028C12.3398 16.22 12.8438 16.316 13.4198 16.316C14.2718 16.316 14.9438 16.034 15.4358 15.47C15.9278 14.894 16.1738 14.114 16.1738 13.13C16.1738 12.17 15.9458 11.456 15.4898 10.988C15.0458 10.508 14.4398 10.268 13.6718 10.268C13.2878 10.268 12.9458 10.316 12.6458 10.412C12.3578 10.496 12.0338 10.64 11.6738 10.844H10.8458V5.03H16.8758L16.7138 5.894ZM28.8238 4.346L29.5978 4.832L21.2458 17.432L20.4897 16.928L28.8238 4.346ZM21.4978 4.832C22.3018 4.832 22.9498 5.096 23.4418 5.624C23.9338 6.152 24.1798 6.86 24.1798 7.748C24.1798 8.636 23.9338 9.35 23.4418 9.89C22.9618 10.418 22.3138 10.682 21.4978 10.682C20.6938 10.682 20.0398 10.418 19.5358 9.89C19.0438 9.362 18.7978 8.654 18.7978 7.766C18.7978 6.878 19.0438 6.17 19.5358 5.642C20.0278 5.102 20.6818 4.832 21.4978 4.832ZM21.4978 5.588C20.8978 5.588 20.4598 5.792 20.1838 6.2C19.9078 6.608 19.7698 7.13 19.7698 7.766C19.7698 8.39 19.9078 8.906 20.1838 9.314C20.4598 9.722 20.8978 9.926 21.4978 9.926C22.0978 9.926 22.5298 9.722 22.7938 9.314C23.0698 8.906 23.2078 8.384 23.2078 7.748C23.2078 7.124 23.0698 6.608 22.7938 6.2C22.5298 5.792 22.0978 5.588 21.4978 5.588ZM28.4638 11.348C29.2678 11.348 29.9158 11.612 30.4078 12.14C30.9118 12.668 31.1638 13.37 31.1638 14.246C31.1638 15.146 30.9178 15.866 30.4258 16.406C29.9338 16.934 29.2798 17.198 28.4638 17.198C27.6718 17.198 27.0238 16.934 26.5198 16.406C26.0278 15.866 25.7818 15.158 25.7818 14.282C25.7818 13.382 26.0218 12.668 26.5018 12.14C26.9938 11.612 27.6478 11.348 28.4638 11.348ZM28.4638 12.104C27.8758 12.104 27.4438 12.308 27.1678 12.716C26.8918 13.124 26.7538 13.646 26.7538 14.282C26.7538 14.906 26.8918 15.422 27.1678 15.83C27.4438 16.238 27.8758 16.442 28.4638 16.442C29.0638 16.442 29.5018 16.238 29.7778 15.83C30.0538 15.422 30.1918 14.894 30.1918 14.246C30.1918 13.634 30.0538 13.124 29.7778 12.716C29.5018 12.308 29.0638 12.104 28.4638 12.104Z" transform="translate(0 175)" fill="#1A1A1A"/>
    <path d="M8.82738 5.03V5.84L4.11138 17.144L3.13938 16.82L7.74738 5.912H2.14938V5.03H8.82738ZM14.1707 4.832C15.4067 4.832 16.3427 5.36 16.9787 6.416C17.6147 7.46 17.9327 8.996 17.9327 11.024C17.9327 13.04 17.6087 14.576 16.9607 15.632C16.3247 16.676 15.3947 17.198 14.1707 17.198C12.9347 17.198 11.9987 16.676 11.3627 15.632C10.7267 14.576 10.4087 13.034 10.4087 11.006C10.4087 8.978 10.7267 7.442 11.3627 6.398C11.9987 5.354 12.9347 4.832 14.1707 4.832ZM14.1707 5.696C12.3827 5.696 11.4887 7.466 11.4887 11.006C11.4887 14.558 12.3827 16.334 14.1707 16.334C15.0467 16.334 15.7067 15.902 16.1507 15.038C16.6067 14.174 16.8347 12.836 16.8347 11.024C16.8347 9.212 16.6067 7.874 16.1507 7.01C15.7067 6.134 15.0467 5.696 14.1707 5.696ZM30.0972 4.346L30.8712 4.832L22.5192 17.432L21.7632 16.928L30.0972 4.346ZM22.7712 4.832C23.5752 4.832 24.2232 5.096 24.7152 5.624C25.2072 6.152 25.4532 6.86 25.4532 7.748C25.4532 8.636 25.2072 9.35 24.7152 9.89C24.2352 10.418 23.5872 10.682 22.7712 10.682C21.9672 10.682 21.3132 10.418 20.8092 9.89C20.3172 9.362 20.0712 8.654 20.0712 7.766C20.0712 6.878 20.3172 6.17 20.8092 5.642C21.3012 5.102 21.9552 4.832 22.7712 4.832ZM22.7712 5.588C22.1712 5.588 21.7332 5.792 21.4572 6.2C21.1812 6.608 21.0432 7.13 21.0432 7.766C21.0432 8.39 21.1812 8.906 21.4572 9.314C21.7332 9.722 22.1712 9.926 22.7712 9.926C23.3712 9.926 23.8032 9.722 24.0672 9.314C24.3432 8.906 24.4812 8.384 24.4812 7.748C24.4812 7.124 24.3432 6.608 24.0672 6.2C23.8032 5.792 23.3712 5.588 22.7712 5.588ZM29.7372 11.348C30.5412 11.348 31.1892 11.612 31.6812 12.14C32.1852 12.668 32.4372 13.37 32.4372 14.246C32.4372 15.146 32.1912 15.866 31.6992 16.406C31.2072 16.934 30.5532 17.198 29.7372 17.198C28.9452 17.198 28.2972 16.934 27.7932 16.406C27.3012 15.866 27.0552 15.158 27.0552 14.282C27.0552 13.382 27.2952 12.668 27.7752 12.14C28.2672 11.612 28.9212 11.348 29.7372 11.348ZM29.7372 12.104C29.1492 12.104 28.7172 12.308 28.4412 12.716C28.1652 13.124 28.0272 13.646 28.0272 14.282C28.0272 14.906 28.1652 15.422 28.4412 15.83C28.7172 16.238 29.1492 16.442 29.7372 16.442C30.3372 16.442 30.7752 16.238 31.0512 15.83C31.3272 15.422 31.4652 14.894 31.4652 14.246C31.4652 13.634 31.3272 13.124 31.0512 12.716C30.7752 12.308 30.3372 12.104 29.7372 12.104Z" transform="translate(213 95)" fill="#1A1A1A"/>
</svg>
