<svg width="512" height="402" viewBox="0 0 512 402" fill="none" xmlns="http://www.w3.org/2000/svg">
    <path opacity="0.6" d="M25.0155 6.9913C38.8312 6.9913 50.031 5.42625 50.031 3.49565C50.031 1.56506 38.8312 0 25.0155 0C11.1998 0 0 1.56506 0 3.49565C0 5.42625 11.1998 6.9913 25.0155 6.9913Z" transform="translate(0 285.012)" fill="url(#paint0_linear)"/>
    <path opacity="0.7" d="M0 80.4L226.893 0L413.691 2.33043L252.961 80.4H0Z" transform="translate(98.3087 195.407)" fill="url(#paint1_linear)"/>
    <path opacity="0.6" d="M25.0155 6.9913C38.8312 6.9913 50.031 5.42625 50.031 3.49565C50.031 1.56506 38.8312 0 25.0155 0C11.1998 0 0 1.56506 0 3.49565C0 5.42625 11.1998 6.9913 25.0155 6.9913Z" transform="translate(348.932 371.355)" fill="url(#paint2_linear)"/>
    <path d="M46.2904 0H0V58.96H46.2904V0Z" transform="translate(19.6383 139.943)" fill="#376FDD"/>
    <path d="M6.31233 0.582609L7.0137 0.23304C7.24749 0.116518 7.48128 0 7.71507 0C8.29954 0.466087 8.18265 0.466089 8.29954 1.0487L2.221 3.84522L4.79269 5.01044C6.07854 5.59305 7.24749 6.17566 8.18265 6.52522C8.06575 7.10783 8.18265 7.10783 7.59817 7.57391C7.24749 7.45739 7.0137 7.34087 6.66301 7.22434C4.90959 6.40869 2.68858 5.47653 0 4.19479V3.72869C0 3.72869 0.116894 3.61217 0.233789 3.49565C0.116894 3.49565 0.116895 3.49566 0 3.61218C0 3.61218 0 3.61217 0 3.49565C0 3.37913 4.44177e-07 3.37913 0.116895 3.26261L6.31233 0.582609Z" transform="translate(22.9114 145.652)" fill="white"/>
    <path d="M6.31233 0.582609L7.0137 0.23304C7.24749 0.116518 7.48128 0 7.71507 0C8.29954 0.466087 8.18265 0.46608 8.29954 1.04869L2.221 3.84522L4.79269 5.01044C6.07854 5.59305 7.24749 6.17564 8.18265 6.52521C8.06575 7.10781 8.18265 7.10783 7.59817 7.57391C7.24749 7.45739 7.0137 7.34087 6.66301 7.22434C4.90959 6.40869 2.68858 5.47651 0 4.19477V3.72869C0 3.72869 0.116894 3.61217 0.233789 3.49565C0.116894 3.49565 0.116895 3.49564 0 3.61216C0 3.61216 0 3.61217 0 3.49565C0 3.37913 4.44177e-07 3.37913 0.116895 3.26261L6.31233 0.582609Z" transform="translate(22.9114 185.036)" fill="white"/>
    <path d="M23.4959 0H0V2.44696H23.4959V0Z" transform="translate(37.6402 147.983)" fill="white"/>
    <path d="M18.2356 0H0V2.44696H18.2356V0Z" transform="translate(42.9005 156.605)" fill="white"/>
    <path d="M10.053 0H0V2.44695H10.053V0Z" transform="translate(51.0831 164.063)" fill="white"/>
    <path d="M23.4959 0H0V2.44695H23.4959V0Z" transform="translate(37.6402 187.367)" fill="white"/>
    <path d="M18.2356 0H0V2.44695H18.2356V0Z" transform="translate(42.9005 178.628)" fill="white"/>
    <path d="M10.053 0H0V2.44696H10.053V0Z" transform="translate(51.0831 171.287)" fill="white"/>
    <path d="M2.4548 0L0 8.85564L1.75342 8.97217L4.20822 0.23304L2.4548 0Z" transform="translate(32.1461 184.454)" fill="white"/>
    <path d="M6.42922 0L5.61096 7.80697L0 22.1391L5.02648 23.6539L9.00091 8.73913L9.46849 0.349569L6.42922 0Z" transform="translate(34.7178 204.962)" fill="#F4F4F4"/>
    <path d="M0 0L2.45479 24.9357L1.63653 46.8418H10.1699L10.6374 45.2104L4.79269 44.3948L7.94886 25.0522L10.7543 0.815666L0 0Z" transform="translate(29.3406 242.831)" fill="#74707C"/>
    <path d="M14.9626 0L13.0922 21.3235L0 38.5687L1.51963 46.7252H5.49406L3.15617 44.9774L2.68858 39.7339L15.1963 25.7513L26.4183 0.69912L14.9626 0Z" transform="translate(11.5726 242.482)" fill="#9BA1AA"/>
    <path d="M24.1973 0L21.5087 0.932177C20.4566 4.07826 18.5863 6.9913 16.1315 9.32174L10.9881 14.2156L4.6758 18.4104L0 35.6557L14.6119 37.0539L15.0795 18.0609L20.4566 11.3026C22.6776 8.50608 24.1973 5.24348 24.7817 1.74783L24.1973 0Z" transform="translate(25.8337 208.224)" fill="white"/>
    <path d="M0 11.8852L3.50685 13.1669L5.84475 1.04869L5.14338 0L0 11.8852Z" transform="translate(46.9918 198.203)" fill="#FFCFD3"/>
    <path d="M3.03927 6.52521L3.27306 0H0.701368L0 6.17564L3.03927 6.52521Z" transform="translate(41.147 198.786)" fill="#FFCFD3"/>
    <path d="M0 3.84522C0 3.84522 1.63653 2.91305 1.63653 2.79653C1.63653 2.68001 2.80548 0 2.80548 0L4.44201 0.23304L3.97443 4.66087L1.75342 5.24348L0 3.84522Z" transform="translate(50.031 194.824)" fill="#FFCFD3"/>
    <path d="M0.404164 6.9112C1.45622 9.35816 4.96307 11.9216 7.53476 10.8729C9.98955 9.82424 10.574 5.51293 9.40508 2.94945C8.35302 0.502497 5.43065 -0.662717 2.97585 0.385979C0.404165 1.5512 -0.64789 4.46425 0.404164 6.9112Z" transform="translate(26.2479 212.266)" fill="#FFCFD3"/>
    <path d="M1.28585 1.03627C1.75343 0.686705 2.22101 0.453665 2.57169 0.220621C2.92238 -0.0124223 3.38995 -0.128944 3.62374 0.220621C3.74064 0.337143 3.62374 0.570186 3.50685 0.80323C3.27306 1.38584 2.92237 1.96845 2.45479 2.31802C1.98722 2.66758 1.40274 2.66758 0.935159 2.55106C0.467579 2.43453 0 2.08497 0 1.61888C0.584475 1.50236 0.93516 1.38584 1.28585 1.03627Z" transform="translate(32.7306 212.665)" fill="#FFCFD3"/>
    <path d="M6.95028 10.6035C4.49549 11.1861 1.45622 8.73914 0.404164 6.52522C-0.64789 4.07827 0.404165 1.16522 2.97585 0.116529C3.09275 7.11019e-06 3.32654 0 3.44343 0C3.67722 0.349565 3.91101 0.699123 4.02791 1.04869C4.37859 2.33043 4.1448 3.96174 3.32654 5.01044C3.20964 4.89392 6.01512 10.2539 6.95028 10.6035Z" transform="translate(26.2479 212.652)" fill="#2A2A2B"/>
    <path d="M0.955805 0.164239C0.60512 0.397283 0.371329 0.63033 0.137539 1.09642C-0.446936 2.26163 0.955804 3.42686 2.00786 3.31034C2.35854 3.31034 2.70923 3.07729 3.05991 2.96077C3.2937 2.84425 3.64439 2.6112 3.76128 2.26163C3.87818 2.02859 3.87818 1.67902 3.76128 1.32946C3.64439 1.09641 3.4106 0.863381 3.17681 0.630337C2.59233 0.0477284 1.54028 -0.185326 0.955805 0.164239Z" transform="translate(28.2679 218.197)" fill="#FFCFD3"/>
    <path d="M1.39963 3.73698C2.17263 3.73698 2.79927 2.90044 2.79927 1.8685C2.79927 0.836559 2.17263 0 1.39963 0C0.626637 0 0 0.836559 0 1.8685C0 2.90044 0.626637 3.73698 1.39963 3.73698Z" transform="matrix(0.554828 -0.831982 0.833615 0.552372 30.2789 213.422)" fill="white"/>
    <path opacity="0.7" d="M313.279 0L252.961 1.16522H0L116.895 10.487C108.595 11.7687 103.452 13.4 103.452 15.1478C103.452 18.993 126.013 22.0226 153.717 22.0226C176.278 22.0226 195.332 19.9252 201.761 17.1287L262.897 22.0226L313.279 0Z" transform="translate(98.3087 274.642)" fill="url(#paint3_linear)"/>
    <path d="M244.895 256.231H0V0H240.219L244.895 3.96174V256.231Z" transform="translate(104.621 19.5757)" fill="#99A2A9"/>
    <path d="M246.531 0H0V256.115H246.531V0Z" transform="translate(98.3087 19.5757)" fill="white"/>
    <path d="M246.531 0H0V20.1583H246.531V0Z" transform="translate(98.3087 19.5757)" fill="#D9DBDD"/>
    <path d="M46.2904 0H0V117.104H46.2904V0Z" transform="translate(431.343)" fill="#376FDD"/>
    <path d="M6.31232 0.582609L7.0137 0.233044C7.24749 0.116522 7.48129 0 7.71508 0C8.29955 0.466087 8.18266 0.466087 8.29955 1.0487L2.221 3.84522L4.7927 5.01043C6.07855 5.59304 7.24749 6.17565 8.18265 6.52522C8.06575 7.10783 8.18265 7.10783 7.59817 7.57391C7.24749 7.45739 7.01371 7.34087 6.66303 7.22435C4.9096 6.4087 2.68858 5.47652 0 4.19478V3.7287C0 3.7287 0.116909 3.61217 0.233804 3.49565C0.116909 3.49565 0.116895 3.49565 0 3.61217C0 3.61217 0 3.61217 0 3.49565C0 3.37913 7.13296e-06 3.37913 0.116902 3.26261L6.31232 0.582609Z" transform="translate(435.901 5.36)" fill="white"/>
    <path d="M6.31232 0.582609L7.0137 0.233044C7.24749 0.116523 7.48129 0 7.71508 0C8.29955 0.466087 8.18266 0.466089 8.29955 1.0487L2.221 3.84522L4.7927 5.01043C6.07855 5.59304 7.24749 6.17565 8.18265 6.52522C8.06575 7.10783 8.18265 7.10783 7.59817 7.57391C7.24749 7.45739 7.01371 7.34087 6.66303 7.22435C4.9096 6.4087 2.68858 5.47652 0 4.19479V3.7287C0 3.7287 0.116909 3.61217 0.233804 3.49565C0.116909 3.49565 0.116895 3.49565 0 3.61218C0 3.61218 0 3.61217 0 3.49565C0 3.37913 7.13296e-06 3.37913 0.116902 3.26261L6.31232 0.582609Z" transform="translate(435.901 44.6278)" fill="white"/>
    <path d="M23.4959 0H0V2.44696H23.4959V0Z" transform="translate(450.513 7.57391)" fill="white"/>
    <path d="M18.2356 0H0V2.44696H18.2356V0Z" transform="translate(455.774 16.313)" fill="white"/>
    <path d="M10.053 0H0V2.44696H10.053V0Z" transform="translate(464.073 23.6539)" fill="white"/>
    <path d="M23.4959 0H0V2.44696H23.4959V0Z" transform="translate(450.513 46.9583)" fill="white"/>
    <path d="M18.2356 0H0V2.44695H18.2356V0Z" transform="translate(455.774 38.3357)" fill="white"/>
    <path d="M10.053 0H0V2.44696H10.053V0Z" transform="translate(464.073 30.8783)" fill="white"/>
    <path d="M2.4548 0L0 8.73913L1.75342 8.85565L4.20823 0.11652L2.4548 0Z" transform="translate(445.136 44.1617)" fill="white"/>
    <path d="M6.31232 0.582609L7.0137 0.23304C7.24749 0.116518 7.48129 0 7.71508 0C8.29955 0.466087 8.18266 0.466084 8.29955 1.04869L2.221 3.84522L4.7927 5.01043C6.07855 5.59304 7.24749 6.17565 8.18265 6.52522C8.06575 7.10782 8.18265 7.10783 7.59817 7.57391C7.24749 7.45739 7.01371 7.34087 6.66303 7.22434C4.9096 6.40869 2.68858 5.47652 0 4.19478V3.72869C0 3.72869 0.116909 3.61217 0.233804 3.49565C0.116909 3.49565 0.116895 3.49565 0 3.61217C0 3.61217 0 3.61217 0 3.49565C0 3.37913 7.13296e-06 3.37913 0.116902 3.26261L6.31232 0.582609Z" transform="translate(435.901 58.7269)" fill="white"/>
    <path d="M6.31232 0.582609L7.0137 0.233049C7.24749 0.116527 7.48129 0 7.71508 0C8.29955 0.466087 8.18266 0.466089 8.29955 1.0487L2.221 3.84522L4.7927 5.01044C6.07855 5.59305 7.24749 6.17566 8.18265 6.52522C8.06575 7.10783 8.18265 7.10783 7.59817 7.57391C7.24749 7.45739 7.01371 7.34087 6.66303 7.22435C4.9096 6.4087 2.68858 5.47653 0 4.19479V3.7287C0 3.7287 0.116909 3.61217 0.233804 3.49565C0.116909 3.49565 0.116895 3.49566 0 3.61218C0 3.61218 0 3.61217 0 3.49565C0 3.37913 7.13296e-06 3.37913 0.116902 3.26261L6.31232 0.582609Z" transform="translate(435.901 98.1113)" fill="white"/>
    <path d="M23.4959 0H0V2.44695H23.4959V0Z" transform="translate(450.513 61.0574)" fill="white"/>
    <path d="M18.2356 0H0V2.44696H18.2356V0Z" transform="translate(455.774 69.68)" fill="white"/>
    <path d="M10.053 0H0V2.44696H10.053V0Z" transform="translate(464.073 77.1374)" fill="white"/>
    <path d="M23.4959 0H0V2.44696H23.4959V0Z" transform="translate(450.513 100.442)" fill="white"/>
    <path d="M18.2356 0H0V2.44696H18.2356V0Z" transform="translate(455.774 91.7026)" fill="white"/>
    <path d="M10.053 0H0V2.44695H10.053V0Z" transform="translate(464.073 84.3617)" fill="white"/>
    <path d="M2.4548 0L0 8.85566L1.75342 8.97218L4.20823 0.233049L2.4548 0Z" transform="translate(445.136 97.5287)" fill="white"/>
    <path d="M1.16885 0H0V94.2742H1.16885V0Z" transform="matrix(0.986477 -0.164037 0.163763 0.986523 265.917 197.076)" fill="#ADB2B2"/>
    <path d="M1.16885 0H0V94.2742H1.16885V0Z" transform="matrix(0.986477 -0.164037 0.163763 0.986523 237.507 197.071)" fill="#ADB2B2"/>
    <path d="M28.7562 0H0V1.16522H28.7562V0Z" transform="translate(241.388 216.148)" fill="#ADB2B2"/>
    <path d="M28.7562 0H0V1.16522H28.7562V0Z" transform="translate(243.375 228.616)" fill="#ADB2B2"/>
    <path d="M28.7562 0H0V1.16522H28.7562V0Z" transform="translate(245.362 240.967)" fill="#ADB2B2"/>
    <path d="M28.7562 0H0V1.16522H28.7562V0Z" transform="translate(247.467 253.435)" fill="#ADB2B2"/>
    <path d="M28.7562 0H0V1.16522H28.7562V0Z" transform="translate(249.454 265.786)" fill="#ADB2B2"/>
    <path d="M28.7562 0H0V1.16522H28.7562V0Z" transform="translate(251.558 278.254)" fill="#ADB2B2"/>
    <path d="M94.2742 0H0V1.16885H94.2742V0Z" transform="matrix(0.164712 -0.986315 0.986485 0.16369 221.144 289.941)" fill="#D9DADB"/>
    <path d="M94.2743 0H0V1.16885H94.2743V0Z" transform="matrix(0.164712 -0.986315 0.986485 0.16369 249.614 289.88)" fill="#D9DADB"/>
    <path d="M28.7562 0H0V1.16522H28.7562V0Z" transform="translate(233.673 216.148)" fill="#D9DADB"/>
    <path d="M28.7562 0H0V1.16522H28.7562V0Z" transform="translate(231.569 228.616)" fill="#D9DADB"/>
    <path d="M28.7562 0H0V1.16522H28.7562V0Z" transform="translate(229.582 240.967)" fill="#D9DADB"/>
    <path d="M28.7562 0H0V1.16522H28.7562V0Z" transform="translate(227.595 253.435)" fill="#D9DADB"/>
    <path d="M28.7562 0H0V1.16522H28.7562V0Z" transform="translate(225.49 265.786)" fill="#D9DADB"/>
    <path d="M28.7562 0H0V1.16522H28.7562V0Z" transform="translate(223.503 278.254)" fill="#D9DADB"/>
    <path d="M35.0685 0H0V3.49565H35.0685V0Z" transform="translate(234.842 195.523)" fill="#ADB2B2"/>
    <path d="M5.37718 50.8035L3.03928 26.4504L0 0.349569L2.3379 0L7.71508 24.7026L16.2484 25.4017L25.0155 0.349569L27.4703 0.699138L21.0411 27.4991L21.2749 50.1043L5.37718 50.8035Z" transform="translate(357.114 284.896)" fill="white"/>
    <path d="M0.169441 3.21016C-0.415034 5.5406 0.520111 9.26928 2.85801 9.96841C5.19591 10.551 8.00138 7.87103 8.58586 5.5406C9.17033 3.21016 7.88448 0.763199 5.54658 0.18059C3.20868 -0.51854 0.753915 0.879728 0.169441 3.21016Z" transform="translate(365.361 299.164)" fill="#FFCFD3"/>
    <path d="M1.40272 1.88496C0.935138 1.76844 0.23379 1.41889 0 0.952801V0.836272C1.05205 0.137142 2.33788 -0.21243 3.74062 0.137135C6.07852 0.719744 7.48126 3.16671 6.77989 5.49714C6.31231 7.12845 4.79267 8.9928 3.03924 9.69193C3.03924 9.22584 3.15615 8.75974 3.27305 8.29366C3.74062 6.42931 4.32509 4.56498 4.90957 2.81716C3.74062 2.58411 2.45477 2.23453 1.40272 1.88496Z" transform="translate(367.284 299.207)" fill="#2A2A2B"/>
    <path d="M0.855576 0.278738C1.20626 0.0456945 1.55695 -0.0708059 2.02453 0.0457158C2.14142 0.0457158 2.1414 0.162209 2.25829 0.162209C2.37519 0.278731 2.4921 0.628303 2.4921 0.861347C2.3752 1.56048 1.90762 2.1431 1.20625 2.25962C0.972456 2.25962 0.855561 2.37615 0.621771 2.37615C0.387981 2.37615 0.271094 2.25961 0.154199 2.14309C-0.313381 1.56048 0.387996 0.628303 0.855576 0.278738Z" transform="translate(370.52 304.309)" fill="#FFCFD3"/>
    <path d="M16.3653 3.96173L14.0274 41.3652H11.4557L9.2347 4.31128L7.0137 4.42781L5.49404 42.2974L3.50685 42.1809L0.467573 4.66087L0 0L16.3653 0.233022V3.96173Z" transform="translate(362.024 331.038)" fill="#9AA1AB"/>
    <path d="M2.80551 0L8.53335 0.582609L8.29955 1.51477H0L0.233804 0H2.80551Z" transform="translate(373.246 372.403)" fill="#9BA2AA"/>
    <path d="M7.83194 0.116529V1.16522L0 1.39828V0.466115L5.84475 0L7.83194 0.116529Z" transform="translate(359.686 373.219)" fill="#9BA2AA"/>
    <path d="M5.546 1.5148C4.14326 1.63133 2.97431 0.233043 1.57157 0C1.45468 0 1.33781 0 1.33781 0C1.22091 0 1.2209 0.116536 1.104 0.233058C0.870211 0.582623 0.753316 0.932181 0.519526 1.28175C0.285736 1.63131 0.168848 1.98088 0.0519533 2.44696C-0.0649417 2.91305 0.0519533 3.37915 0.0519533 3.84524C0.168848 4.1948 0.168834 4.54436 0.402624 4.89393C0.753309 5.47654 1.33781 5.94263 1.92228 6.17567C2.50676 6.40872 3.2081 6.4087 3.90947 6.4087C4.37705 6.4087 4.84465 6.29219 5.31223 6.05914C6.24739 5.59306 6.83187 4.54435 6.59808 3.49565C6.59808 3.26261 6.48118 3.02956 6.48118 2.79651C6.48118 2.56347 6.59805 2.33046 6.71495 2.09741C6.83184 1.86437 7.76702 0.582609 7.06565 0.582609C6.83186 0.582609 6.48117 0.932167 6.36427 1.04869C6.13049 1.39825 5.89668 1.5148 5.546 1.5148Z" transform="translate(364.193 304.005)" fill="#2A2A2B"/>
    <path d="M0 8.6226H3.50685L5.49408 0.349569L3.03928 0L0 8.6226Z" transform="translate(379.09 285.246)" fill="url(#paint4_linear)"/>
    <path d="M2.3379 0L0 0.349569L0.935146 8.97217H4.32513L2.3379 0Z" transform="translate(357.114 284.896)" fill="url(#paint5_linear)"/>
    <path d="M1.98719 3.96173C3.0847 3.96173 3.97442 3.07487 3.97442 1.98087C3.97442 0.886862 3.0847 0 1.98719 0C0.889685 0 0 0.886862 0 1.98087C0 3.07487 0.889685 3.96173 1.98719 3.96173Z" transform="translate(356.763 281.983)" fill="#FFCFD3"/>
    <path d="M1.98723 3.96173C3.08474 3.96173 3.97442 3.07487 3.97442 1.98087C3.97442 0.886862 3.08474 0 1.98723 0C0.88972 0 0 0.886862 0 1.98087C0 3.07487 0.88972 3.96173 1.98723 3.96173Z" transform="translate(380.493 282.565)" fill="#FFCFD3"/>
    <path d="M98.0749 0H0V58.2609H98.0749V0Z" transform="translate(419.705 284.121) rotate(-180)" fill="white"/>
    <path d="M43.7187 0H0V43.2296H43.7187V0Z" transform="translate(414.44 276.498) rotate(-180)" fill="#376FDD"/>
    <path d="M38.2247 0H0V3.61218H38.2247V0Z" transform="translate(365.335 237.294) rotate(-180)" fill="#376FDD"/>
    <path d="M38.2247 0H0V3.61218H38.2247V0Z" transform="translate(365.335 246.263) rotate(-180)" fill="#376FDD"/>
    <path d="M38.2247 0H0V3.61218H38.2247V0Z" transform="translate(365.335 255.233) rotate(-180)" fill="#376FDD"/>
    <path d="M38.2247 0H0V3.61216H38.2247V0Z" transform="translate(365.335 264.203) rotate(-180)" fill="#376FDD"/>
    <path d="M38.2247 0H0V3.61216H38.2247V0Z" transform="translate(365.335 273.173) rotate(-180)" fill="#376FDD"/>
    <path d="M9.83693 4.54924C10.0707 7.22924 8.08352 11.191 5.39494 11.3075C2.70635 11.5405 0.25155 7.92836 0.0177599 5.24836C-0.21603 2.56836 1.88807 0.237929 4.57666 0.00488546C7.26524 -0.111636 9.72004 1.86924 9.83693 4.54924Z" transform="translate(229.096 117.332)" fill="#FFCFD3"/>
    <path d="M10.6374 0L8.18265 24.9356L9.00091 46.8417H0.467573L0.116884 45.2104L5.84475 44.3948L2.80547 25.0522L0 0.93216L10.6374 0Z" transform="translate(239.167 148.682)" fill="#75707B"/>
    <path d="M2.47001 0.11652C2.00243 -1.77972e-06 1.41794 0 0.833465 0C0.48278 0 -0.101691 0.116524 0.015204 0.466089C0.015204 0.699132 0.132103 0.815647 0.365892 0.932169C0.833472 1.28173 1.41794 1.74783 2.00241 1.74783C2.47 1.86435 3.05447 1.6313 3.40515 1.28174C3.75584 0.932172 3.98963 0.466087 3.75584 0C3.40515 0.116522 2.93759 0.11652 2.47001 0.11652Z" transform="translate(227.346 120.483)" fill="#FFCFD3"/>
    <path d="M1.98723 11.2038C4.44202 10.5047 6.07854 7.009 5.84475 4.56204C5.61096 1.88204 3.27306 -0.21534 0.584475 0.0177032C0.46758 0.0177032 0.233797 0.0177014 0.116902 0.134223C7.13296e-06 0.483788 0 0.949875 0 1.29944C0.23379 2.6977 1.28586 3.86292 2.5717 4.44552C2.5717 4.44552 2.5717 10.3881 1.98723 11.2038Z" transform="translate(233.089 117.436)" fill="#2A2A2B"/>
    <path d="M1.87031 0C2.22099 0 2.68857 0.116525 3.03926 0.349569C4.09131 1.16522 3.50685 2.79652 2.3379 3.14608C1.98721 3.2626 1.63652 3.26261 1.28583 3.26261C0.935149 3.26261 0.584461 3.14609 0.350671 3.02956C0.116881 2.79652 0 2.56348 0 2.21391C0 1.86435 0.116884 1.6313 0.116884 1.28174C0.350674 0.699129 1.16894 0 1.87031 0Z" transform="translate(234.491 122.348)" fill="#FFCFD3"/>
    <path d="M38.5753 17.0122L23.0283 17.7113L12.0402 0L0 7.80696L20.5735 23.887L37.9909 19.8087L39.6274 24.2365L41.0301 23.6539L38.5753 17.0122Z" transform="translate(238.816 143.438)" fill="#9AA1AB"/>
    <path d="M2.92237 5.82609C4.53636 5.82609 5.84475 4.52187 5.84475 2.91304C5.84475 1.30421 4.53636 0 2.92237 0C1.30839 0 0 1.30421 0 2.91304C0 4.52187 1.30839 5.82609 2.92237 5.82609Z" transform="translate(237.18 116.638)" fill="#2A2A2B"/>
    <path d="M1.16895 0H0V73.4087H1.16895V0Z" transform="translate(163.302 1.28174)" fill="#9BA1A9"/>
    <path d="M3.62373 7.22434C5.62507 7.22434 7.24749 5.60712 7.24749 3.61217C7.24749 1.61722 5.62507 0 3.62373 0C1.62239 0 0 1.61722 0 3.61217C0 5.60712 1.62239 7.22434 3.62373 7.22434Z" transform="translate(160.263 72.593)" fill="#A2A8AF"/>
    <path d="M22.0931 50.687L21.158 37.8696L22.5607 28.3148L27.4703 0.349569L25.1324 0L19.7552 24.7026L11.2219 25.4017L2.45477 0.349569L0 0.699138L6.42922 27.3826L8.76712 37.6365L8.41642 50.1043L22.0931 50.687Z" transform="translate(441.512 118.503)" fill="white"/>
    <path d="M0 4.42783C0 6.87479 1.98724 10.1374 4.44203 10.1374C6.89683 10.1374 8.88403 6.75826 8.88403 4.42783C8.88403 1.98087 6.89683 0 4.44203 0C1.98724 0 0 1.98087 0 4.42783Z" transform="translate(451.682 132.369)" fill="#FFCFD3"/>
    <path opacity="0.6" d="M25.0155 6.9913C38.8312 6.9913 50.031 5.42625 50.031 3.49565C50.031 1.56506 38.8312 0 25.0155 0C11.1998 0 0 1.56506 0 3.49565C0 5.42625 11.1998 6.9913 25.0155 6.9913Z" transform="translate(428.654 203.214)" fill="url(#paint6_linear)"/>
    <path d="M0.54741 0.466089C0.7812 0.116524 1.13191 0 1.59949 0C1.71639 0 1.83326 -1.77972e-06 1.83326 0.11652C2.06705 0.233042 2.18397 0.466085 2.18397 0.699129C2.30086 1.39826 1.95016 2.09739 1.36569 2.44695C1.24879 2.56348 1.015 2.68 0.781214 2.68C0.547424 2.68 0.430529 2.68 0.196739 2.56347C-0.270841 1.98087 0.196725 0.815654 0.54741 0.466089Z" transform="translate(457.447 136.913)" fill="#FFCFD3"/>
    <path d="M3.10522 5.11881C3.22211 5.11881 3.33903 5.23533 3.45592 5.11881C3.57282 5.11881 3.5728 5.00229 3.68969 4.88577C3.92348 4.5362 4.50796 4.5362 4.85864 4.88577C5.20933 5.23533 5.20933 5.70142 4.97554 6.05098C4.74175 6.40055 4.39108 6.63359 3.9235 6.75011C3.68971 7.79881 3.57282 8.84751 3.57282 9.89621C4.27419 9.89621 4.97555 10.0127 5.67692 10.0127C5.79382 10.0127 5.9107 10.0127 6.02759 9.89621C6.14449 9.77968 6.14449 9.66316 6.14449 9.54664C6.37828 8.38142 6.4952 7.09968 6.4952 5.93446C6.4952 4.76925 6.37829 3.48751 5.67692 2.43881C4.97555 1.2736 1.93628 -0.823799 0.416646 0.341418C-1.10299 1.62316 1.93627 4.5362 3.10522 5.11881Z" transform="translate(454.889 132.027)" fill="#2A2A2B"/>
    <path d="M2.94089 3.43088C2.23952 4.47957 1.30436 5.29523 0.135413 5.64479C-0.215272 4.36305 0.135391 2.84827 0.953656 1.79957C1.42124 1.21696 3.05777 -0.297819 3.99293 0.0517459C4.8112 0.401311 3.40846 2.73175 2.94089 3.43088Z" transform="translate(451.313 131.851)" fill="#2A2A2B"/>
    <path d="M27.5872 0.582609L14.6119 0L4.5589 44.5113L0 41.7148L5.61094 48.5896L18.937 11.7687L18.7032 28.4313L27.7041 40.4331L28.2886 44.6278L28.5224 46.4922L30.1589 46.2591L30.3927 39.7339L23.379 28.4313L28.4055 9.78784L27.5872 0.582609Z" transform="translate(435.551 159.518)" fill="#B9BFC5"/>
    <path d="M0 12.3513L2.80547 13.4L5.02651 0.349569L2.68861 0L0 12.3513Z" transform="translate(463.956 118.503)" fill="#FFCFD3"/>
    <path d="M6.07852 10.3704L2.80547 11.6522L0 0.349569L2.45477 0L6.07852 10.3704Z" transform="translate(441.512 118.852)" fill="#FFCFD3"/>
    <path d="M3.62372 0L1.16895 4.31131L0 0.233049L3.62372 0Z" transform="translate(454.955 143.438)" fill="#FFCFD3"/>
    <path d="M1.98723 3.96174C3.08474 3.96174 3.97442 3.07488 3.97442 1.98087C3.97442 0.886871 3.08474 0 1.98723 0C0.88972 0 0 0.886871 0 1.98087C0 3.07488 0.88972 3.96174 1.98723 3.96174Z" transform="translate(440.577 115.473)" fill="#FFCFD3"/>
    <path d="M1.98719 3.96174C3.0847 3.96174 3.97442 3.07487 3.97442 1.98087C3.97442 0.886862 3.0847 0 1.98719 0C0.889685 0 0 0.886862 0 1.98087C0 3.07487 0.889685 3.96174 1.98719 3.96174Z" transform="translate(466.06 115.823)" fill="#FFCFD3"/>
    <path d="M5.02651 21.9061L8.18265 13.2835L8.65026 11.8852L4.32513 0L0 19.3426C1.87032 20.2748 3.74066 21.207 5.02651 21.9061Z" transform="translate(445.721 159.518)" fill="url(#paint7_linear)"/>
    <path d="M64.9936 10.3704H3.85754C1.75343 10.3704 0 8.62261 0 6.52522V3.84522C0 1.74783 1.75343 0 3.85754 0H64.9936C67.0977 0 68.8512 1.74783 68.8512 3.84522V6.52522C68.8512 8.62261 67.0977 10.3704 64.9936 10.3704Z" transform="translate(250.389 25.0522)" fill="white"/>
    <path d="M0 13.5165L142.612 20.3913L189.019 0.582609L170.433 0L0 13.5165Z" transform="translate(5.37714 338.146)" fill="url(#paint8_linear)"/>
    <path d="M0 13.4L142.612 20.3913L189.136 0.582609L170.433 0L0 13.4Z" transform="translate(29.5744 381.609)" fill="url(#paint9_linear)"/>
    <path opacity="0.6" d="M25.0155 6.9913C38.8312 6.9913 50.0311 5.42625 50.0311 3.49565C50.0311 1.56506 38.8312 0 25.0155 0C11.1998 0 0 1.56506 0 3.49565C0 5.42625 11.1998 6.9913 25.0155 6.9913Z" transform="translate(211.229 378.579)" fill="url(#paint10_linear)"/>
    <path d="M0 13.5165V17.0121L140.04 18.8765L170.433 3.49565V0L0 13.5165Z" transform="translate(5.37714 334.65)" fill="#2688C4"/>
    <path d="M140.04 17.2452L0 15.3808L30.2758 0L170.433 1.86435L140.04 17.2452Z" transform="translate(5.37714 336.282)" fill="#376FDD"/>
    <path d="M140.157 17.2452L0 15.3808L30.3927 0L170.433 1.86435L140.157 17.2452Z" transform="translate(5.37714 332.786)" fill="white"/>
    <path d="M76.9169 2.21391L0 1.16522L2.22101 0L79.2548 1.04869L76.9169 2.21391Z" transform="translate(36.0037 334.301)" fill="#8BBBEF"/>
    <path d="M76.9169 2.21391L0 1.16522L2.221 0L79.2548 1.04869L76.9169 2.21391Z" transform="translate(30.2758 337.214)" fill="#8BBBEF"/>
    <path d="M77.0338 2.21394L0 1.16522L2.3379 0L79.3717 1.04872L77.0338 2.21394Z" transform="translate(24.6648 340.01)" fill="#8BBBEF"/>
    <path d="M77.0338 2.21391L0 1.16522L2.3379 0L79.2548 1.04869L77.0338 2.21391Z" transform="translate(19.4045 342.69)" fill="#8BBBEF"/>
    <path d="M49.7973 12.3513L0 11.6522L23.1452 0L72.9425 0.582609L49.7973 12.3513Z" transform="translate(95.6201 335.466)" fill="#8BBBEF"/>
    <path d="M0.116895 13.4L0 16.8957L140.157 18.76L170.433 3.49565L170.55 0L0.116895 13.4Z" transform="translate(29.1069 377.414)" fill="#2688C4"/>
    <path d="M140.157 17.1287L0 15.2644L30.3927 0L170.433 1.86435L140.157 17.1287Z" transform="translate(29.1069 379.045)" fill="#376FDD"/>
    <path d="M140.04 17.1287L0 15.2644L30.2758 0L170.433 1.86435L140.04 17.1287Z" transform="translate(29.2238 375.55)" fill="white"/>
    <path d="M77.0338 2.21391L0 1.16522L2.3379 0L79.3717 1.04869L77.0338 2.21391Z" transform="translate(59.7333 377.064)" fill="#376FDD"/>
    <path d="M77.0338 2.21391L0 1.16522L2.3379 0L79.2548 1.04869L77.0338 2.21391Z" transform="translate(54.0055 379.977)" fill="#376FDD"/>
    <path d="M77.0338 2.09738L0 1.16522L2.3379 0L79.2548 0.93216L77.0338 2.09738Z" transform="translate(48.5114 382.774)" fill="#376FDD"/>
    <path d="M77.0338 2.09741L0 1.16522L2.3379 0L79.2548 0.932195L77.0338 2.09741Z" transform="translate(43.2511 385.454)" fill="#376FDD"/>
    <path d="M49.7973 12.3513L0 11.7687L23.2621 0L73.0594 0.699138L49.7973 12.3513Z" transform="translate(119.35 378.113)" fill="#376FDD"/>
    <path d="M80.6576 0H0V6.9913H80.6576V0Z" transform="translate(256.234 54.5322)" fill="#D71D1D"/>
    <path d="M80.6576 0H0V39.1513H80.6576V0Z" transform="translate(256.234 69.68)" fill="#D71D1D"/>
    <path d="M66.3963 0H0V2.33043H66.3963V0Z" transform="translate(122.623 142.04)" fill="#D71D1D"/>
    <path d="M66.3963 0H0V2.33043H66.3963V0Z" transform="translate(122.623 151.711)" fill="#D71D1D"/>
    <path d="M66.3963 0H0V2.33043H66.3963V0Z" transform="translate(122.623 161.266)" fill="#D71D1D"/>
    <path d="M46.758 0H0V2.33043H46.758V0Z" transform="translate(122.623 170.937)" fill="#D71D1D"/>
    <path d="M57.9799 0H0V2.33043H57.9799V0Z" transform="translate(154.301 213.468)" fill="#D71D1D"/>
    <path d="M57.9799 0H0V2.33043H57.9799V0Z" transform="translate(154.301 223.139)" fill="#D71D1D"/>
    <path d="M41.3808 0H0V2.33043H41.3808V0Z" transform="translate(154.301 232.81)" fill="#D71D1D"/>
    <path d="M3.03928 0L7.0137 6.05914L10.9881 18.1774L22.7945 37.1704L21.0411 37.6365L6.89681 21.9061L0 8.6226L3.03928 0Z" transform="translate(226.659 339.661)" fill="#B9BFC5"/>
    <path d="M15.0795 0L0 25.0522L1.98721 25.7513L20.1059 2.56346L15.0795 0Z" transform="translate(190.188 347.934)" fill="#88838F"/>
    <path d="M0 8.97215L4.09132 16.8957L6.19544 5.24348L5.84475 4.19479L3.27306 0.116529L2.80549 0C2.80549 0 1.75344 3.72869 1.40275 4.54434C1.28586 5.01043 0.70137 6.99128 0 8.97215Z" transform="translate(227.828 341.525)" fill="url(#paint11_linear)"/>
    <path d="M5.6555 0.0715069C8.34408 0.537594 11.734 3.33412 11.2665 5.89759C10.7989 8.57759 6.82445 10.0924 4.13586 9.74283C1.44728 9.27675 -0.306148 6.82977 0.0445367 4.14977C0.512117 1.46977 3.08381 -0.39458 5.6555 0.0715069Z" transform="translate(193.3 342.386)" fill="#FFCFD3"/>
    <path d="M0.532531 1.39828C0.298741 1.86436 0.181836 2.44696 0.0649407 2.91304C-0.0519542 3.26261 -0.0519507 3.8452 0.415629 3.8452C0.649419 3.8452 0.766325 3.7287 0.88322 3.61218C1.3508 3.26262 1.93526 2.79651 2.16905 2.21391C2.40284 1.74782 2.28596 1.16522 2.05217 0.699138C1.81838 0.349572 1.3508 0 0.88322 0C0.766325 0.466087 0.649426 0.932188 0.532531 1.39828Z" transform="translate(195.033 349.565)" fill="#FFCFD3"/>
    <path d="M11.2219 5.43151C11.105 2.98456 8.06576 0.537594 5.61096 0.0715069C2.92238 -0.39458 0.350685 1.46977 0 4.14977C0 4.26629 0 4.49936 0 4.61588C0.350685 4.84893 0.818265 4.96543 1.16895 4.96543C2.57169 5.08196 3.97443 4.38283 4.90959 3.21761C4.6758 3.33413 10.5206 4.73238 11.2219 5.43151Z" transform="translate(193.461 342.269)" fill="#2A2A2B"/>
    <path d="M0.0180328 1.34003C0.134928 0.990462 0.368707 0.640868 0.719392 0.291303C1.77145 -0.524349 3.17418 0.524354 3.29108 1.57305C3.29108 1.92261 3.29109 2.27217 3.17419 2.62174C3.0573 2.9713 2.94039 3.20436 2.7066 3.4374C2.47281 3.67045 2.12214 3.67046 1.77146 3.67046C1.42077 3.67046 1.18697 3.4374 0.953178 3.32088C0.368703 2.97131 -0.0988622 2.03916 0.0180328 1.34003Z" transform="translate(198.82 343.797)" fill="#FFCFD3"/>
    <path d="M9.3516 15.7487L0 32.0618L2.1041 32.1783L14.1443 20.06L15.7808 4.4461C15.7808 4.4461 15.7808 -0.331277 13.6767 0.0182887C11.5726 0.367854 10.5205 2.93133 10.5205 2.93133L9.3516 15.7487Z" transform="translate(194.747 345.003)" fill="#9AA1AA"/>
    <path d="M0 6.2922C9.70228 1.51481 20.8073 0 20.8073 0L26.0676 10.3705L2.221 14.2157L0 6.2922Z" transform="translate(204.332 338.845)" fill="#9AA1AA"/>
    <path d="M4.32511 0.00313451H5.84475C9.81918 -0.113387 13.2091 3.03271 13.2091 7.11097L5.37716 21.3266L6.77991 41.7179H4.6758L0 22.3753L4.32511 0.00313451Z" transform="translate(220.698 339.075)" fill="#BAC0C6"/>
    <path d="M2.4548 5.12695C3.81055 5.12695 4.9096 3.97923 4.9096 2.56346C4.9096 1.14769 3.81055 0 2.4548 0C1.09906 0 0 1.14769 0 2.56346C0 3.97923 1.09906 5.12695 2.4548 5.12695Z" transform="translate(188.084 372.403)" fill="#FFCFD3"/>
    <path d="M2.45478 5.12695C3.81053 5.12695 4.90959 3.97923 4.90959 2.56346C4.90959 1.14769 3.81053 0 2.45478 0C1.09904 0 0 1.14769 0 2.56346C0 3.97923 1.09904 5.12695 2.45478 5.12695Z" transform="translate(193.578 374.85)" fill="#FFCFD3"/>
    <path d="M9.93607 0.116529L10.2867 2.09738L0 2.33043C0 2.33043 0.584461 0.815638 0.935146 0.93216C1.28583 1.04868 7.83196 0 7.83196 0H9.93607V0.116529Z" transform="translate(217.542 380.443)" fill="#9AA1AA"/>
    <path d="M8.29953 0L9.3516 2.21391L0 2.44696L0.233786 1.39828L6.54611 0.46608L8.29953 0Z" transform="translate(241.154 376.831)" fill="#9AA1AA"/>
    <path d="M1.98721 0L7.83196 5.36001L27.1196 14.9148L18.7032 17.0122L5.96163 8.27305L0 2.33044L1.98721 0Z" transform="translate(212.281 116.755)" fill="#A0A9AE"/>
    <path d="M98.1918 0H0V50.4539H98.1918V0Z" transform="translate(220.787 133.96) rotate(-180)" fill="#D71D1D"/>
    <path d="M24.3141 0H0V22.7217H24.3141V0Z" transform="translate(146.933 235.642) rotate(-180)" fill="#D71D1D"/>
    <path d="M98.1918 0H0V50.4539H98.1918V0Z" transform="translate(213.922 127.986) rotate(-180)" fill="#376FDD"/>
    <path d="M6.89681 1.39827L6.07855 0.932177L5.26027 2.21391L1.28585 0L0 1.51479L5.61096 5.70957L6.77991 4.19479L6.19544 3.37913L6.42922 2.44696L6.89681 1.39827Z" transform="translate(203.28 114.424)" fill="#FFCFD3"/>
    <path d="M2.10411 0C4.55891 2.33044 13.4429 8.6226 16.716 9.6713L23.4959 11.6522L30.9772 12.4678L43.1342 25.5183L30.6265 33.2087L21.5087 16.8957L13.5598 13.4C10.2868 12.0017 2.221 4.77739 0 1.98087L2.10411 0Z" transform="translate(208.073 118.036)" fill="#B9BFC5"/>
    <defs>
        <linearGradient id="paint0_linear" x2="1" gradientUnits="userSpaceOnUse" gradientTransform="translate(50.0891 -21.4383) scale(-50.0891 49.9292)">
            <stop offset="0.00540541" stop-color="#869198" stop-opacity="0.7"/>
            <stop offset="0.9896" stop-color="#8D9CA6" stop-opacity="0"/>
        </linearGradient>
        <linearGradient id="paint1_linear" x2="1" gradientUnits="userSpaceOnUse" gradientTransform="translate(43.3646 -24.3532) scale(305.273 304.298) rotate(-38.0095)">
            <stop stop-color="#DEE0DB" stop-opacity="0.8"/>
            <stop offset="0.9896" stop-color="#818686" stop-opacity="0"/>
        </linearGradient>
        <linearGradient id="paint2_linear" x2="1" gradientUnits="userSpaceOnUse" gradientTransform="translate(50.0716 -21.523) scale(-50.0892 49.9293)">
            <stop offset="0.00540541" stop-color="#869198" stop-opacity="0.7"/>
            <stop offset="0.9896" stop-color="#8D9CA6" stop-opacity="0"/>
        </linearGradient>
        <linearGradient id="paint3_linear" x2="1" gradientUnits="userSpaceOnUse" gradientTransform="translate(92.9522 -102.659) scale(220.742 220.037) rotate(1.51542)">
            <stop stop-color="#DEE0DB" stop-opacity="0.8"/>
            <stop offset="0.9896" stop-color="#818686" stop-opacity="0"/>
        </linearGradient>
        <linearGradient id="paint4_linear" x2="1" gradientUnits="userSpaceOnUse" gradientTransform="translate(20.7656 -21.2333) scale(36.0265 35.9114) rotate(90)">
            <stop stop-color="#868889" stop-opacity="0.8"/>
            <stop offset="0.9896" stop-color="#7E888B" stop-opacity="0"/>
        </linearGradient>
        <linearGradient id="paint5_linear" x2="1" gradientUnits="userSpaceOnUse" gradientTransform="translate(20.1443 -20.8838) scale(36.0267 35.9115) rotate(90)">
            <stop stop-color="#868889" stop-opacity="0.8"/>
            <stop offset="0.9896" stop-color="#7E888B" stop-opacity="0"/>
        </linearGradient>
        <linearGradient id="paint6_linear" x2="1" gradientUnits="userSpaceOnUse" gradientTransform="translate(-0.0752803 -21.4383) scale(50.0891 49.9292)">
            <stop offset="0.00540541" stop-color="#869198" stop-opacity="0.7"/>
            <stop offset="0.9896" stop-color="#8D9CA6" stop-opacity="0"/>
        </linearGradient>
        <linearGradient id="paint7_linear" x2="1" gradientUnits="userSpaceOnUse" gradientTransform="translate(20.4846 7.54024) scale(20.4493 20.384) rotate(128.431)">
            <stop stop-color="#869A9F" stop-opacity="0.8"/>
            <stop offset="0.9896" stop-color="#8D899A" stop-opacity="0"/>
        </linearGradient>
        <linearGradient id="paint8_linear" x2="1" gradientUnits="userSpaceOnUse" gradientTransform="translate(56.2165 -58.7617) scale(133.041 132.616) rotate(1.51543)">
            <stop stop-color="#2688C4" stop-opacity="0.8"/>
            <stop offset="0.9896" stop-color="#2688C4" stop-opacity="0"/>
        </linearGradient>
        <linearGradient id="paint9_linear" x2="1" gradientUnits="userSpaceOnUse" gradientTransform="translate(56.2997 -58.7808) scale(133.041 132.616) rotate(1.51538)">
            <stop stop-color="#2688C4" stop-opacity="0.8"/>
            <stop offset="0.9896" stop-color="#2688C4" stop-opacity="0"/>
        </linearGradient>
        <linearGradient id="paint10_linear" x2="1" gradientUnits="userSpaceOnUse" gradientTransform="translate(50.0862 -21.5186) scale(-50.0892 49.9292)">
            <stop offset="0.00540541" stop-color="#869198" stop-opacity="0.7"/>
            <stop offset="0.9896" stop-color="#8D9CA6" stop-opacity="0"/>
        </linearGradient>
        <linearGradient id="paint11_linear" x2="1" gradientUnits="userSpaceOnUse" gradientTransform="translate(-0.0230283 5.40131) scale(6.22712 6.20723)">
            <stop stop-color="#818897" stop-opacity="0.8"/>
            <stop offset="0.9896" stop-color="#889097" stop-opacity="0"/>
        </linearGradient>
    </defs>
</svg>
