<svg width="16" height="16" viewBox="0 0 16 16" fill="none" xmlns="http://www.w3.org/2000/svg">
    <path d="M4.1247 5.81215C4.41736 5.51949 4.74202 5.27817 5.08734 5.08751C7.01195 4.02687 9.47987 4.59086 10.7172 6.4668L9.21988 7.96342C8.79056 6.98412 7.72459 6.4268 6.66396 6.66412C6.26464 6.75346 5.88532 6.95278 5.57533 7.26277L2.70608 10.1334C1.83478 11.0047 1.83478 12.4219 2.70608 13.2933C3.57739 14.1646 4.99468 14.1646 5.86598 13.2933L6.75062 12.4086C7.55526 12.7279 8.4179 12.8553 9.26988 12.7919L7.31727 14.7445C5.64332 16.4185 2.92941 16.4185 1.25546 14.7445C-0.418487 13.0706 -0.418487 10.3567 1.25546 8.68273L4.1247 5.81215ZM8.6819 1.25496L6.72929 3.20757C7.5806 3.14357 8.4439 3.27156 9.24854 3.59022L10.1325 2.70625C11.0038 1.83494 12.4211 1.83494 13.2924 2.70625C14.1637 3.57755 14.1637 4.99484 13.2924 5.86615L10.4225 8.73606C9.54854 9.61003 8.12925 9.6027 7.26261 8.73606C7.06061 8.53407 6.88662 8.28274 6.77796 8.03542L5.28067 9.53204C5.438 9.77069 5.60133 9.97669 5.81132 10.1867C6.35264 10.728 7.04195 11.1313 7.83526 11.3226C8.86322 11.57 9.96452 11.4333 10.9105 10.9113C11.2558 10.7207 11.5805 10.4793 11.8731 10.1867L14.7424 7.31677C16.417 5.64282 16.417 2.92891 14.743 1.25496C13.0691 -0.41832 10.3558 -0.41832 8.6819 1.25496Z" fill="black"/>
</svg>
