<svg width="152" height="26" viewBox="0 0 152 26" fill="none" xmlns="http://www.w3.org/2000/svg">
    <path d="M10.3063 1.06859C9.3819 0.424696 8.70585 0.123299 7.28477 0.123299C5.76711 0.123299 4.85651 0.684992 4.23565 1.31519V0H0V15.2753H4.22185V5.42514C4.69095 4.52095 5.367 4.09626 6.33278 4.09626C7.00883 4.09626 7.28477 4.21955 7.28477 4.21955L7.46413 4.30175L10.5546 1.24669L10.3063 1.06859Z" transform="translate(25.3035 10.3274)" fill="#D81D1D"/>
    <path d="M8.15397 0C3.35265 0 0 3.20577 0 7.79522C0 12.3847 3.35265 15.5904 8.15397 15.5904C12.9553 15.5904 16.3079 12.3847 16.3079 7.79522C16.3079 3.20577 12.9553 0 8.15397 0ZM8.15397 11.6586C6.02925 11.6586 4.4978 10.042 4.4978 7.80891C4.4978 5.56214 6.00166 3.98666 8.15397 3.98666C10.2925 3.98666 11.8377 5.58954 11.8377 7.80891C11.8377 10.1105 10.3615 11.6586 8.15397 11.6586Z" transform="translate(77.58 10.3411)" fill="#3770DD"/>
    <path d="M10.9685 8.53501C10.2097 8.17881 9.3405 8.01441 8.20916 8.01441C5.87748 8.01441 3.78034 8.809 2.30408 10.2338C0.814011 11.6723 0 13.7135 0 15.974C0 18.1934 0.662251 20.084 1.93157 21.4403C3.20088 22.8103 4.99447 23.5226 7.0916 23.5226C8.59547 23.5226 9.90618 23.0568 10.9685 22.1253V23.2623H15.2042V0L10.9685 4.20585V8.53501ZM8.37471 11.9874C9.25772 11.9874 10.1131 12.234 10.9685 12.7272V18.2482C10.4167 18.7688 9.3405 19.5634 7.86424 19.5634C6.18101 19.5634 4.49779 18.4126 4.49779 15.837C4.48399 13.193 6.49833 11.9874 8.37471 11.9874Z" transform="translate(95.9437 2.34036)" fill="#3770DD"/>
    <path d="M12.9415 1.90428C11.6308 0.684994 9.85099 0 7.93322 0C5.57395 0 3.5734 0.794592 2.12473 2.27418C0.758833 3.68526 0 5.64434 0 7.79522C0 12.4669 3.24228 15.5904 8.05739 15.5904C10.9685 15.5904 12.3896 14.8506 14.1142 13.3985L14.335 13.2067L12.0171 10.9051L11.8239 11.0558C11.1341 11.6175 10.2787 11.9874 8.42991 11.9874C6.29139 11.9874 4.80133 10.9462 4.40122 9.1652H14.7351L14.7903 8.9734C14.9558 8.39801 15.0248 7.82261 15.0248 6.91842C15.0524 4.97305 14.3074 3.17837 12.9415 1.90428ZM7.76766 3.60306C8.71965 3.60306 9.51987 3.89076 10.0579 4.45245C10.4994 4.90455 10.7616 5.52104 10.803 6.20603H4.30464C4.77373 4.47985 5.93267 3.60306 7.76766 3.60306Z" transform="translate(113.286 10.3411)" fill="#3770DD"/>
    <path d="M23.0684 6.94582C22.489 5.52104 21.6335 4.26065 20.5436 3.21947C18.3637 1.13709 15.3284 0 11.9757 0C8.59547 0 5.51876 1.20559 3.33885 3.41126C1.18654 5.57584 0 8.54871 0 11.7956C0 13.5355 0.303533 15.152 0.910596 16.6316C1.49007 18.0564 2.34548 19.3168 3.43543 20.358C5.60155 22.4404 8.63686 23.5911 11.9895 23.5911C14.1418 23.5911 16.101 23.139 17.8118 22.2486L18.681 23.2349H23.9928L20.9989 19.7826C22.9305 17.6728 23.9928 14.8506 23.9928 11.7956C23.979 10.0557 23.6755 8.42541 23.0684 6.94582ZM11.9757 19.3716C7.90563 19.3716 4.71854 16.0425 4.71854 11.7819C4.71854 7.38422 7.76766 4.19215 11.9757 4.19215C16.1976 4.19215 19.2743 7.38422 19.2743 11.7819C19.2743 13.4807 18.8328 15.0424 18.005 16.3302L16.1562 14.1793H10.7616L14.9007 18.8373C13.9901 19.1935 13.0105 19.3716 11.9757 19.3716Z" transform="translate(51.4349 2.28556)" fill="#3770DD"/>
    <path d="M5.31181 22.8925H0L9.58885 0H14.3074L23.8962 22.8925H18.2533L16.3355 18.0838H7.21578L5.31181 22.8925ZM14.3764 13.1793L11.7964 6.69923L9.18874 13.1793H14.3764Z" transform="translate(0 2.72396)" fill="#D81D1D"/>
    <path d="M2.80077 17.9605V13.4807H0V9.0008H2.80077V0L7.65728 4.58945V9.0008H11.6998V13.4944H7.65728V17.7413C7.65728 18.8099 7.97461 19.3442 8.59547 19.3442C9.28532 19.3442 9.74061 19.1661 10.0441 18.9606L12.5552 21.9335C11.2997 23.0294 9.3267 23.8377 7.32615 23.8377C5.75331 23.8377 4.59437 23.3445 3.87693 22.3719C3.17328 21.3992 2.80077 19.9333 2.80077 17.9605Z" transform="translate(36.9343 2.16226)" fill="#D81D1D"/>
    <path opacity="0.4" d="M0 5.38404V0.0410994C0.551828 0.0136997 1.07606 0 1.55891 0C2.15213 0 2.60739 0.123298 2.8971 0.356196C3.18681 0.589093 3.33855 0.91789 3.33855 1.32889C3.33855 1.90428 3.07644 2.31527 2.566 2.54817V2.56187C2.85571 2.64407 3.09023 2.78107 3.25578 3.00027C3.42133 3.20577 3.5041 3.47976 3.5041 3.82226C3.5041 4.34285 3.32476 4.74015 2.96607 5.01414C2.60739 5.28814 2.11074 5.42514 1.50373 5.42514C0.896715 5.41144 0.386279 5.39774 0 5.38404ZM1.54511 0.876791C1.32438 0.876791 1.11745 0.89049 0.951898 0.90419V2.26048H1.58651C1.83483 2.26048 2.02796 2.20568 2.16592 2.08238C2.31767 1.95908 2.38665 1.78098 2.38665 1.54808C2.38665 1.32888 2.31767 1.16449 2.16592 1.05489C2.02796 0.931589 1.82103 0.876791 1.54511 0.876791ZM1.62789 3.08247H0.951898V4.50725C1.20022 4.53465 1.40716 4.54835 1.5727 4.54835C2.2349 4.54835 2.566 4.28805 2.566 3.76746C2.566 3.54826 2.48322 3.37016 2.31768 3.26056C2.15213 3.13726 1.9314 3.08247 1.62789 3.08247Z" transform="translate(132.574 2.28556)" fill="black"/>
    <path opacity="0.4" d="M3.2006 5.37034H0V0H3.13162V0.876791H0.951898V2.20568H2.8971V3.08247H0.951898V4.46615H3.2144V5.37034H3.2006Z" transform="translate(137.652 2.29926)" fill="black"/>
    <path opacity="0.4" d="M1.75205 0.89049H0V0H4.45602V0.876791H2.70395V5.37034H1.75205V0.89049Z" transform="translate(141.97 2.29926)" fill="black"/>
    <path opacity="0.4" d="M0.951906 5.38404H0L2.29008 0H3.11782L5.40791 5.38404H4.40083L3.83521 4.01406H1.53132L0.951906 5.38404ZM3.46272 3.13727L2.67637 1.23299L1.87621 3.13727H3.46272Z" transform="translate(146.592 2.28556)" fill="black"/>
</svg>
