<svg width="171" height="32" viewBox="0 0 171 32" fill="none" xmlns="http://www.w3.org/2000/svg">
    <path d="M13.7379 1.43448C12.5057 0.570116 11.6046 0.165518 9.71035 0.165518C7.68736 0.165518 6.47356 0.91954 5.64598 1.76552V0H0V20.5057H5.64598V7.28276C6.27126 6.06897 7.17241 5.49885 8.45977 5.49885C9.36092 5.49885 9.72873 5.66437 9.72873 5.66437L9.96782 5.77471L14.0874 1.67356L13.7379 1.43448Z"
          transform="translate(33.7103 10.9609)" fill="#D81D1D"/>
    <path d="M10.869 0C4.46896 0 0 4.30345 0 10.4644C0 16.6253 4.46896 20.9287 10.869 20.9287C17.269 20.9287 21.7379 16.6253 21.7379 10.4644C21.7379 4.30345 17.269 0 10.869 0ZM10.869 15.6506C8.03678 15.6506 5.9954 13.4805 5.9954 10.4828C5.9954 7.46667 8 5.35172 10.869 5.35172C13.7195 5.35172 15.7793 7.50345 15.7793 10.4828C15.7793 13.5724 13.8115 15.6506 10.869 15.6506Z"
          transform="translate(103.393 10.9793)" fill="#3770DD"/>
    <path d="M14.6207 11.4575C13.6092 10.9793 12.4506 10.7586 10.9425 10.7586C7.83448 10.7586 5.03908 11.8253 3.07127 13.7379C1.08506 15.669 0 18.4092 0 21.4437C0 24.423 0.882759 26.9609 2.57471 28.7816C4.26667 30.6207 6.65746 31.577 9.45287 31.577C11.4575 31.577 13.2046 30.9517 14.6207 29.7011V31.2276H20.2667V0L14.6207 5.64598V11.4575ZM11.1632 16.092C12.3402 16.092 13.4805 16.423 14.6207 17.0851V24.4966C13.8851 25.1954 12.4506 26.2621 10.4828 26.2621C8.23908 26.2621 5.9954 24.7172 5.9954 21.2598C5.97701 17.7103 8.66207 16.092 11.1632 16.092Z"
          transform="translate(127.853 0.23908)" fill="#3770DD"/>
    <path d="M17.2506 2.55632C15.5034 0.91954 13.131 0 10.5747 0C7.42989 0 4.76321 1.06667 2.83218 3.05287C1.01149 4.94713 0 7.57701 0 10.4644C0 16.7356 4.32183 20.9287 10.7402 20.9287C14.6207 20.9287 16.5149 19.9356 18.8138 17.9862L19.108 17.7287L16.0184 14.6391L15.7609 14.8414C14.8414 15.5954 13.7011 16.092 11.2368 16.092C8.3862 16.092 6.39999 14.6943 5.86666 12.3034H19.6414L19.7149 12.046C19.9356 11.2736 20.0276 10.5011 20.0276 9.28736C20.0644 6.67586 19.0713 4.26667 17.2506 2.55632ZM10.354 4.83678C11.623 4.83678 12.6896 5.22299 13.4069 5.97701C13.9954 6.58391 14.3448 7.41149 14.4 8.33103H5.73792C6.36321 6.01379 7.90804 4.83678 10.354 4.83678Z"
          transform="translate(150.97 10.9793)" fill="#3770DD"/>
    <path d="M30.7494 9.32414C29.977 7.41149 28.8368 5.71954 27.3839 4.32184C24.4782 1.52644 20.4322 0 15.9632 0C11.4575 0 7.35632 1.61839 4.45057 4.57931C1.58161 7.48506 0 11.4759 0 15.8345C0 18.1701 0.404593 20.3402 1.21379 22.3264C1.9862 24.2391 3.12644 25.931 4.57931 27.3287C7.46667 30.1241 11.5126 31.669 15.9816 31.669C18.8506 31.669 21.4621 31.0621 23.7425 29.8667L24.9011 31.1908H31.9816L27.9908 26.5563C30.5655 23.7241 31.9816 19.9356 31.9816 15.8345C31.9632 13.4989 31.5586 11.3103 30.7494 9.32414ZM15.9632 26.0046C10.5379 26.0046 6.28965 21.5356 6.28965 15.8161C6.28965 9.91264 10.354 5.62759 15.9632 5.62759C21.5908 5.62759 25.692 9.91264 25.692 15.8161C25.692 18.0966 25.1034 20.1931 24 21.9218L21.5356 19.0345H14.3448L19.8621 25.2874C18.6483 25.7655 17.3425 26.0046 15.9632 26.0046Z"
          transform="translate(68.5425 0.165518)" fill="#3770DD"/>
    <path d="M7.08046 30.731H0L12.7816 0H19.0713L31.8529 30.731H24.331L21.7747 24.2759H9.61839L7.08046 30.731ZM19.1632 17.692L15.7241 8.9931L12.2483 17.692H19.1632Z"
          transform="translate(0 0.754023)" fill="#D81D1D"/>
    <path d="M3.73333 24.1103V18.0966H0V12.0828H3.73333V0L10.2069 6.16092V12.0828H15.5954V18.1149H10.2069V23.8161C10.2069 25.2506 10.6299 25.9678 11.4575 25.9678C12.377 25.9678 12.9839 25.7287 13.3885 25.4529L16.7356 29.4437C15.0621 30.9149 12.4322 32 9.76552 32C7.66897 32 6.12414 31.3379 5.16782 30.0322C4.22989 28.7264 3.73333 26.7586 3.73333 24.1103Z"
          transform="translate(49.2138)" fill="#D81D1D"/>
</svg>