<svg width="162" height="597" viewBox="0 0 162 597" fill="none" xmlns="http://www.w3.org/2000/svg">
    <path opacity="0.5" d="M65.0273 10.986V13.95H64.0523L63.8573 12H58.6963L58.5013 13.95H57.5262V10.986H58.1373C58.3713 10.7607 58.5489 10.4747 58.6703 10.128C58.8003 9.78133 58.9086 9.322 58.9953 8.75C59.0906 8.16933 59.2336 7.13367 59.4243 5.643L59.7493 3.043H64.2993V10.986H65.0273ZM63.0643 4.057H60.8283L60.6463 5.695C60.4903 7.02967 60.3603 8.00467 60.2563 8.62C60.1609 9.23533 60.0309 9.725 59.8663 10.089C59.7103 10.453 59.4806 10.752 59.1773 10.986H63.0643V4.057ZM72.1685 12H70.9855V8.906C70.9855 8.386 71.0028 7.892 71.0375 7.424C71.0722 6.956 71.1025 6.64833 71.1285 6.501L68.2555 12H66.8385V5.149H68.0215V8.243C68.0215 8.70233 68.0042 9.179 67.9695 9.673C67.9348 10.1583 67.9088 10.4703 67.8915 10.609L70.7255 5.149H72.1685V12ZM76.3234 4.993C76.7568 4.993 77.1598 5.06667 77.5324 5.214C77.9138 5.35267 78.2171 5.56067 78.4424 5.838C78.6764 6.11533 78.7934 6.449 78.7934 6.839C78.7934 7.22033 78.6808 7.53233 78.4554 7.775C78.2388 8.01767 77.8921 8.204 77.4154 8.334C77.9874 8.42933 78.4208 8.607 78.7154 8.867C79.0101 9.127 79.1574 9.49967 79.1574 9.985C79.1574 10.6957 78.8801 11.2373 78.3254 11.61C77.7794 11.974 77.0818 12.156 76.2324 12.156C75.2011 12.156 74.3214 11.87 73.5934 11.298L74.2174 10.557C74.5208 10.7737 74.8241 10.934 75.1274 11.038C75.4394 11.142 75.7948 11.194 76.1934 11.194C77.3114 11.194 77.8704 10.7867 77.8704 9.972C77.8704 9.57333 77.7101 9.296 77.3894 9.14C77.0774 8.97533 76.6398 8.893 76.0764 8.893H75.1664L75.2444 7.957H75.9464C76.4318 7.957 76.8218 7.87033 77.1164 7.697C77.4111 7.52367 77.5584 7.255 77.5584 6.891C77.5584 6.553 77.4328 6.31033 77.1814 6.163C76.9301 6.007 76.6008 5.929 76.1934 5.929C75.8381 5.929 75.5218 5.97667 75.2444 6.072C74.9758 6.15867 74.7028 6.29733 74.4254 6.488L73.8534 5.773C74.2001 5.513 74.5728 5.318 74.9714 5.188C75.3701 5.058 75.8208 4.993 76.3234 4.993ZM85.6215 10.401C85.6215 10.6783 85.6692 10.8863 85.7645 11.025C85.8598 11.155 86.0028 11.2547 86.1935 11.324L85.9205 12.156C85.5652 12.1127 85.2792 12.013 85.0625 11.857C84.8458 11.701 84.6855 11.4583 84.5815 11.129C84.1222 11.8137 83.4418 12.156 82.5405 12.156C81.8645 12.156 81.3315 11.9653 80.9415 11.584C80.5515 11.2027 80.3565 10.7043 80.3565 10.089C80.3565 9.361 80.6165 8.802 81.1365 8.412C81.6652 8.022 82.4105 7.827 83.3725 7.827H84.4255V7.32C84.4255 6.83467 84.3085 6.488 84.0745 6.28C83.8405 6.072 83.4808 5.968 82.9955 5.968C82.4928 5.968 81.8775 6.08933 81.1495 6.332L80.8505 5.461C81.6998 5.149 82.4885 4.993 83.2165 4.993C84.0225 4.993 84.6248 5.19233 85.0235 5.591C85.4222 5.981 85.6215 6.54 85.6215 7.268V10.401ZM82.8135 11.259C83.4982 11.259 84.0355 10.9037 84.4255 10.193V8.62H83.5285C82.2632 8.62 81.6305 9.088 81.6305 10.024C81.6305 10.4313 81.7302 10.739 81.9295 10.947C82.1288 11.155 82.4235 11.259 82.8135 11.259ZM93.4078 12H92.2248V8.906C92.2248 8.386 92.2421 7.892 92.2768 7.424C92.3114 6.956 92.3418 6.64833 92.3678 6.501L89.4948 12H88.0778V5.149H89.2608V8.243C89.2608 8.70233 89.2434 9.179 89.2088 9.673C89.1741 10.1583 89.1481 10.4703 89.1308 10.609L91.9648 5.149H93.4078V12ZM90.7168 3.641C90.1881 3.641 89.7418 3.50667 89.3778 3.238C89.0224 2.96067 88.8188 2.588 88.7668 2.12L89.5598 1.951C89.6464 2.22833 89.7808 2.42767 89.9628 2.549C90.1534 2.67033 90.4048 2.731 90.7168 2.731C91.0288 2.731 91.2844 2.67033 91.4838 2.549C91.6831 2.419 91.8261 2.21967 91.9128 1.951L92.7058 2.12C92.6538 2.588 92.4414 2.96067 92.0688 3.238C91.7048 3.50667 91.2541 3.641 90.7168 3.641ZM99.9157 12V8.984H97.0687V12H95.8727V5.149H97.0687V8.022H99.9157V5.149H101.112V12H99.9157Z" transform="translate(1)" fill="#1A1A1A"/>
    <path d="M160 0H0V41.9909H160V0Z" transform="translate(1 22)" fill="#EFEFEF" stroke="#B5B5B5" stroke-miterlimit="10"/>
    <path d="M0 0L159.322 41.3136" transform="translate(1.33887 22.3389)" stroke="#B5B5B5" stroke-miterlimit="10"/>
    <path d="M159.322 0L0 41.3136" transform="translate(1.33887 22.3389)" stroke="#B5B5B5" stroke-miterlimit="10"/>
    <path d="M88.1356 0H0V47.4091H88.1356V0Z" transform="translate(1 69.4092)" fill="#EFEFEF" stroke="#B5B5B5" stroke-miterlimit="10"/>
    <path d="M0 0L87.4576 46.7318" transform="translate(1.33887 69.7478)" stroke="#B5B5B5" stroke-miterlimit="10"/>
    <path d="M87.4576 0L0 46.7318" transform="translate(1.33887 69.7478)" stroke="#B5B5B5" stroke-miterlimit="10"/>
    <path d="M65.0847 0H0V101.591H65.0847V0Z" transform="translate(95.915 69.4092)" fill="#EFEFEF" stroke="#B5B5B5" stroke-miterlimit="10"/>
    <path d="M64.4068 0L0 100.914" transform="translate(96.2544 69.7478)" stroke="#B5B5B5" stroke-miterlimit="10"/>
    <path d="M0 0L64.4068 100.914" transform="translate(96.2544 69.7478)" stroke="#B5B5B5" stroke-miterlimit="10"/>
    <path d="M88.1356 0H0V47.4091H88.1356V0Z" transform="translate(1 123.591)" fill="#EFEFEF" stroke="#B5B5B5" stroke-miterlimit="10"/>
    <path d="M0 0L87.4576 46.7318" transform="translate(1.33887 123.93)" stroke="#B5B5B5" stroke-miterlimit="10"/>
    <path d="M87.4576 0L0 46.7318" transform="translate(1.33887 123.93)" stroke="#B5B5B5" stroke-miterlimit="10"/>
    <path opacity="0.5" d="M61.0484 7.268C61.6637 7.372 62.1621 7.58867 62.5434 7.918C62.9247 8.24733 63.1154 8.75867 63.1154 9.452C63.1154 11.1507 61.9324 12 59.5664 12H57.0964V3.043H59.2154C60.3507 3.043 61.2174 3.22933 61.8154 3.602C62.4221 3.97467 62.7254 4.54233 62.7254 5.305C62.7254 5.825 62.5607 6.25833 62.2314 6.605C61.9107 6.95167 61.5164 7.17267 61.0484 7.268ZM58.3314 4.018V6.839H59.6834C60.2034 6.839 60.6281 6.71333 60.9574 6.462C61.2954 6.21067 61.4644 5.85533 61.4644 5.396C61.4644 4.876 61.2867 4.51633 60.9314 4.317C60.5847 4.11767 60.0561 4.018 59.3454 4.018H58.3314ZM59.5664 11.012C60.2944 11.012 60.8491 10.9037 61.2304 10.687C61.6204 10.4703 61.8154 10.0587 61.8154 9.452C61.8154 8.86267 61.6291 8.438 61.2564 8.178C60.8837 7.918 60.3984 7.788 59.8004 7.788H58.3314V11.012H59.5664ZM70.1146 8.373C70.1146 8.57233 70.1059 8.776 70.0886 8.984H65.7206C65.7726 9.738 65.9632 10.2927 66.2926 10.648C66.6219 11.0033 67.0466 11.181 67.5666 11.181C67.8959 11.181 68.1992 11.1333 68.4766 11.038C68.7539 10.9427 69.0442 10.791 69.3476 10.583L69.8676 11.298C69.1396 11.87 68.3422 12.156 67.4756 12.156C66.5222 12.156 65.7769 11.844 65.2396 11.22C64.7109 10.596 64.4466 9.738 64.4466 8.646C64.4466 7.93533 64.5592 7.307 64.7846 6.761C65.0186 6.20633 65.3479 5.773 65.7726 5.461C66.2059 5.149 66.7129 4.993 67.2936 4.993C68.2036 4.993 68.9012 5.292 69.3866 5.89C69.8719 6.488 70.1146 7.31567 70.1146 8.373ZM68.9316 8.022C68.9316 7.346 68.7972 6.83033 68.5286 6.475C68.2599 6.11967 67.8569 5.942 67.3196 5.942C66.3402 5.942 65.8072 6.66133 65.7206 8.1H68.9316V8.022ZM65.9676 2.016C66.1756 2.016 66.3489 2.08967 66.4876 2.237C66.6349 2.37567 66.7086 2.549 66.7086 2.757C66.7086 2.965 66.6349 3.14267 66.4876 3.29C66.3489 3.42867 66.1756 3.498 65.9676 3.498C65.7509 3.498 65.5689 3.42867 65.4216 3.29C65.2829 3.14267 65.2136 2.965 65.2136 2.757C65.2136 2.549 65.2829 2.37567 65.4216 2.237C65.5689 2.08967 65.7509 2.016 65.9676 2.016ZM68.6846 2.016C68.9012 2.016 69.0789 2.08967 69.2176 2.237C69.3649 2.37567 69.4386 2.549 69.4386 2.757C69.4386 2.965 69.3649 3.14267 69.2176 3.29C69.0789 3.42867 68.9012 3.498 68.6846 3.498C68.4766 3.498 68.2989 3.42867 68.1516 3.29C68.0129 3.14267 67.9436 2.965 67.9436 2.757C67.9436 2.549 68.0129 2.37567 68.1516 2.237C68.2989 2.08967 68.4766 2.016 68.6846 2.016ZM75.1706 4.993C76.0459 4.993 76.6872 5.305 77.0946 5.929C77.5019 6.553 77.7056 7.43267 77.7056 8.568C77.7056 9.64267 77.4716 10.5093 77.0036 11.168C76.5356 11.8267 75.8726 12.156 75.0146 12.156C74.2519 12.156 73.6539 11.896 73.2206 11.376V14.626L72.0246 14.769V5.149H73.0516L73.1426 6.072C73.3939 5.72533 73.6972 5.461 74.0526 5.279C74.4079 5.08833 74.7806 4.993 75.1706 4.993ZM74.7286 11.181C75.8552 11.181 76.4186 10.31 76.4186 8.568C76.4186 6.81733 75.9029 5.942 74.8716 5.942C74.5336 5.942 74.2259 6.04167 73.9486 6.241C73.6712 6.44033 73.4286 6.696 73.2206 7.008V10.349C73.3939 10.6177 73.6106 10.8257 73.8706 10.973C74.1306 11.1117 74.4166 11.181 74.7286 11.181ZM82.2393 4.993C82.6466 4.993 83.0193 5.05367 83.3573 5.175C83.6953 5.28767 84.0203 5.474 84.3323 5.734L83.7603 6.488C83.5176 6.31467 83.2793 6.189 83.0453 6.111C82.82 6.02433 82.5686 5.981 82.2913 5.981C81.7366 5.981 81.3033 6.202 80.9913 6.644C80.688 7.086 80.5363 7.74033 80.5363 8.607C80.5363 9.47367 80.688 10.115 80.9913 10.531C81.2946 10.9383 81.728 11.142 82.2913 11.142C82.56 11.142 82.807 11.103 83.0323 11.025C83.2576 10.9383 83.509 10.804 83.7863 10.622L84.3323 11.402C83.7083 11.9047 83.0106 12.156 82.2393 12.156C81.312 12.156 80.5796 11.844 80.0423 11.22C79.5136 10.596 79.2493 9.73367 79.2493 8.633C79.2493 7.905 79.3706 7.268 79.6133 6.722C79.856 6.176 80.1983 5.75133 80.6403 5.448C81.091 5.14467 81.624 4.993 82.2393 4.993ZM90.5793 5.149L90.4363 6.124H88.2393V12H87.0433V6.124H84.7813V5.149H90.5793ZM96.9515 5.149L94.8715 8.321L97.1985 12H95.7815L93.8835 8.841H93.0125V12H91.8165V5.149H93.0125V7.905H93.9095L95.6385 5.149H96.9515ZM102.982 10.401C102.982 10.6783 103.03 10.8863 103.125 11.025C103.221 11.155 103.364 11.2547 103.554 11.324L103.281 12.156C102.926 12.1127 102.64 12.013 102.423 11.857C102.207 11.701 102.046 11.4583 101.942 11.129C101.483 11.8137 100.803 12.156 99.9013 12.156C99.2253 12.156 98.6923 11.9653 98.3023 11.584C97.9123 11.2027 97.7173 10.7043 97.7173 10.089C97.7173 9.361 97.9773 8.802 98.4973 8.412C99.026 8.022 99.7713 7.827 100.733 7.827H101.786V7.32C101.786 6.83467 101.669 6.488 101.435 6.28C101.201 6.072 100.842 5.968 100.356 5.968C99.8537 5.968 99.2383 6.08933 98.5103 6.332L98.2113 5.461C99.0607 5.149 99.8493 4.993 100.577 4.993C101.383 4.993 101.986 5.19233 102.384 5.591C102.783 5.981 102.982 6.54 102.982 7.268V10.401ZM100.174 11.259C100.859 11.259 101.396 10.9037 101.786 10.193V8.62H100.889C99.624 8.62 98.9913 9.088 98.9913 10.024C98.9913 10.4313 99.091 10.739 99.2903 10.947C99.4897 11.155 99.7843 11.259 100.174 11.259Z" transform="translate(1 195)" fill="#1A1A1A"/>
    <path d="M160 0H0V32.5091H160V0Z" transform="translate(1 221)" fill="#EFEFEF" stroke="#B5B5B5" stroke-miterlimit="10"/>
    <path d="M0 0L159.322 31.8318" transform="translate(1.33887 221.339)" stroke="#B5B5B5" stroke-miterlimit="10"/>
    <path d="M159.322 0L0 31.8318" transform="translate(1.33887 221.339)" stroke="#B5B5B5" stroke-miterlimit="10"/>
    <path d="M98.3051 0H0V47.4091H98.3051V0Z" transform="translate(1 268.409)" fill="#EFEFEF" stroke="#B5B5B5" stroke-miterlimit="10"/>
    <path d="M0 0L97.6271 46.7318" transform="translate(1.33887 268.748)" stroke="#B5B5B5" stroke-miterlimit="10"/>
    <path d="M97.6271 0L0 46.7318" transform="translate(1.33887 268.748)" stroke="#B5B5B5" stroke-miterlimit="10"/>
    <path d="M51.5254 0H0V101.591H51.5254V0Z" transform="translate(109.475 268.409)" fill="#EFEFEF" stroke="#B5B5B5" stroke-miterlimit="10"/>
    <path d="M50.8475 0L0 100.914" transform="translate(109.813 268.748)" stroke="#B5B5B5" stroke-miterlimit="10"/>
    <path d="M0 0L50.8475 100.914" transform="translate(109.813 268.748)" stroke="#B5B5B5" stroke-miterlimit="10"/>
    <path d="M98.3051 0H0V47.4091H98.3051V0Z" transform="translate(1 322.591)" fill="#EFEFEF" stroke="#B5B5B5" stroke-miterlimit="10"/>
    <path d="M0 0L97.6271 46.7318" transform="translate(1.33887 322.93)" stroke="#B5B5B5" stroke-miterlimit="10"/>
    <path d="M97.6271 0L0 46.7318" transform="translate(1.33887 322.93)" stroke="#B5B5B5" stroke-miterlimit="10"/>
    <path opacity="0.5" d="M54.5173 3.043C55.6266 3.043 56.4846 3.277 57.0913 3.745C57.6979 4.20433 58.0013 4.89333 58.0013 5.812C58.0013 6.79133 57.6849 7.51933 57.0523 7.996C56.4196 8.47267 55.5789 8.711 54.5303 8.711H53.3993V12H52.1643V3.043H54.5173ZM54.4783 7.736C55.1976 7.736 55.7436 7.59733 56.1163 7.32C56.4976 7.04267 56.6883 6.54433 56.6883 5.825C56.6883 5.18367 56.4976 4.72 56.1163 4.434C55.7436 4.148 55.2063 4.005 54.5043 4.005H53.3993V7.736H54.4783ZM64.4334 8.373C64.4334 8.57233 64.4247 8.776 64.4074 8.984H60.0394C60.0914 9.738 60.2821 10.2927 60.6114 10.648C60.9407 11.0033 61.3654 11.181 61.8854 11.181C62.2147 11.181 62.5181 11.1333 62.7954 11.038C63.0727 10.9427 63.3631 10.791 63.6664 10.583L64.1864 11.298C63.4584 11.87 62.6611 12.156 61.7944 12.156C60.8411 12.156 60.0957 11.844 59.5584 11.22C59.0297 10.596 58.7654 9.738 58.7654 8.646C58.7654 7.93533 58.8781 7.307 59.1034 6.761C59.3374 6.20633 59.6667 5.773 60.0914 5.461C60.5247 5.149 61.0317 4.993 61.6124 4.993C62.5224 4.993 63.2201 5.292 63.7054 5.89C64.1907 6.488 64.4334 7.31567 64.4334 8.373ZM63.2504 8.022C63.2504 7.346 63.1161 6.83033 62.8474 6.475C62.5787 6.11967 62.1757 5.942 61.6384 5.942C60.6591 5.942 60.1261 6.66133 60.0394 8.1H63.2504V8.022ZM67.7033 4.993C68.1367 4.993 68.5397 5.06667 68.9123 5.214C69.2937 5.35267 69.597 5.56067 69.8223 5.838C70.0563 6.11533 70.1733 6.449 70.1733 6.839C70.1733 7.22033 70.0607 7.53233 69.8353 7.775C69.6187 8.01767 69.272 8.204 68.7953 8.334C69.3673 8.42933 69.8007 8.607 70.0953 8.867C70.39 9.127 70.5373 9.49967 70.5373 9.985C70.5373 10.6957 70.26 11.2373 69.7053 11.61C69.1593 11.974 68.4617 12.156 67.6123 12.156C66.581 12.156 65.7013 11.87 64.9733 11.298L65.5973 10.557C65.9007 10.7737 66.204 10.934 66.5073 11.038C66.8193 11.142 67.1747 11.194 67.5733 11.194C68.6913 11.194 69.2503 10.7867 69.2503 9.972C69.2503 9.57333 69.09 9.296 68.7693 9.14C68.4573 8.97533 68.0197 8.893 67.4563 8.893H66.5463L66.6243 7.957H67.3263C67.8117 7.957 68.2017 7.87033 68.4963 7.697C68.791 7.52367 68.9383 7.255 68.9383 6.891C68.9383 6.553 68.8127 6.31033 68.5613 6.163C68.31 6.007 67.9807 5.929 67.5733 5.929C67.218 5.929 66.9017 5.97667 66.6243 6.072C66.3557 6.15867 66.0827 6.29733 65.8053 6.488L65.2333 5.773C65.58 5.513 65.9527 5.318 66.3513 5.188C66.75 5.058 67.2007 4.993 67.7033 4.993ZM75.0786 12.039C74.8099 12.8363 74.4329 13.4647 73.9476 13.924C73.4709 14.392 72.7863 14.6737 71.8936 14.769L71.7636 13.833C72.2143 13.755 72.5739 13.6423 72.8426 13.495C73.1113 13.3477 73.3236 13.157 73.4796 12.923C73.6443 12.6977 73.7959 12.39 73.9346 12H73.5316L71.2306 5.149H72.5046L74.3376 11.129L76.1316 5.149H77.3666L75.0786 12.039ZM83.6124 5.149V12H82.4164V6.124H80.2974L80.1024 8.412C80.0244 9.33933 79.9247 10.0327 79.8034 10.492C79.6907 10.9513 79.5087 11.3067 79.2574 11.558C79.0147 11.8007 78.642 12 78.1394 12.156L77.8404 11.207C78.135 11.103 78.343 10.9687 78.4644 10.804C78.5857 10.6393 78.6767 10.388 78.7374 10.05C78.798 9.712 78.863 9.12267 78.9324 8.282L79.2054 5.149H83.6124ZM88.1906 7.359C89.2133 7.359 89.9543 7.55833 90.4136 7.957C90.8729 8.35567 91.1026 8.92333 91.1026 9.66C91.1026 10.4313 90.8426 11.0163 90.3226 11.415C89.8113 11.805 89.1743 12 88.4116 12H86.0846V5.149H87.2806V7.359H88.1906ZM88.3076 11.064C88.7929 11.064 89.1656 10.9557 89.4256 10.739C89.6943 10.5223 89.8286 10.1627 89.8286 9.66C89.8286 9.18333 89.7029 8.83233 89.4516 8.607C89.2089 8.38167 88.7843 8.269 88.1776 8.269H87.2806V11.064H88.3076ZM96.9714 5.149L96.8284 6.124H94.6314V12H93.4354V6.124H91.1734V5.149H96.9714ZM102.303 10.401C102.303 10.6783 102.351 10.8863 102.446 11.025C102.541 11.155 102.684 11.2547 102.875 11.324L102.602 12.156C102.247 12.1127 101.961 12.013 101.744 11.857C101.527 11.701 101.367 11.4583 101.263 11.129C100.804 11.8137 100.123 12.156 99.2221 12.156C98.5461 12.156 98.0131 11.9653 97.6231 11.584C97.2331 11.2027 97.0381 10.7043 97.0381 10.089C97.0381 9.361 97.2981 8.802 97.8181 8.412C98.3468 8.022 99.0921 7.827 100.054 7.827H101.107V7.32C101.107 6.83467 100.99 6.488 100.756 6.28C100.522 6.072 100.162 5.968 99.6771 5.968C99.1745 5.968 98.5591 6.08933 97.8311 6.332L97.5321 5.461C98.3815 5.149 99.1701 4.993 99.8981 4.993C100.704 4.993 101.306 5.19233 101.705 5.591C102.104 5.981 102.303 6.54 102.303 7.268V10.401ZM99.4951 11.259C100.18 11.259 100.717 10.9037 101.107 10.193V8.62H100.21C98.9448 8.62 98.3121 9.088 98.3121 10.024C98.3121 10.4313 98.4118 10.739 98.6111 10.947C98.8105 11.155 99.1051 11.259 99.4951 11.259ZM109.134 5.149L108.991 6.124H106.794V12H105.598V6.124H103.336V5.149H109.134Z" transform="translate(1 394)" fill="#1A1A1A"/>
    <path d="M15.1213 5.03V5.84L10.4053 17.144L9.43332 16.82L14.0413 5.912H8.44332V5.03H15.1213ZM22.7343 5.894H17.8743V9.98C18.5343 9.608 19.2183 9.422 19.9263 9.422C20.9583 9.422 21.7743 9.758 22.3743 10.43C22.9863 11.09 23.2923 11.996 23.2923 13.148C23.2923 13.928 23.1303 14.63 22.8063 15.254C22.4943 15.866 22.0443 16.346 21.4563 16.694C20.8803 17.03 20.2083 17.198 19.4403 17.198C18.1083 17.198 16.9803 16.718 16.0563 15.758L16.7043 15.128C17.0883 15.536 17.4963 15.836 17.9283 16.028C18.3603 16.22 18.8643 16.316 19.4403 16.316C20.2923 16.316 20.9643 16.034 21.4563 15.47C21.9483 14.894 22.1943 14.114 22.1943 13.13C22.1943 12.17 21.9663 11.456 21.5103 10.988C21.0663 10.508 20.4603 10.268 19.6923 10.268C19.3083 10.268 18.9663 10.316 18.6663 10.412C18.3783 10.496 18.0543 10.64 17.6943 10.844H16.8663V5.03H22.8963L22.7343 5.894ZM34.8443 4.346L35.6183 4.832L27.2663 17.432L26.5103 16.928L34.8443 4.346ZM27.5183 4.832C28.3223 4.832 28.9703 5.096 29.4623 5.624C29.9543 6.152 30.2003 6.86 30.2003 7.748C30.2003 8.636 29.9543 9.35 29.4623 9.89C28.9823 10.418 28.3343 10.682 27.5183 10.682C26.7143 10.682 26.0603 10.418 25.5563 9.89C25.0643 9.362 24.8183 8.654 24.8183 7.766C24.8183 6.878 25.0643 6.17 25.5563 5.642C26.0483 5.102 26.7023 4.832 27.5183 4.832ZM27.5183 5.588C26.9183 5.588 26.4803 5.792 26.2043 6.2C25.9283 6.608 25.7903 7.13 25.7903 7.766C25.7903 8.39 25.9283 8.906 26.2043 9.314C26.4803 9.722 26.9183 9.926 27.5183 9.926C28.1183 9.926 28.5503 9.722 28.8143 9.314C29.0903 8.906 29.2283 8.384 29.2283 7.748C29.2283 7.124 29.0903 6.608 28.8143 6.2C28.5503 5.792 28.1183 5.588 27.5183 5.588ZM34.4843 11.348C35.2883 11.348 35.9363 11.612 36.4283 12.14C36.9323 12.668 37.1843 13.37 37.1843 14.246C37.1843 15.146 36.9383 15.866 36.4463 16.406C35.9543 16.934 35.3003 17.198 34.4843 17.198C33.6923 17.198 33.0443 16.934 32.5403 16.406C32.0483 15.866 31.8023 15.158 31.8023 14.282C31.8023 13.382 32.0423 12.668 32.5223 12.14C33.0143 11.612 33.6683 11.348 34.4843 11.348ZM34.4843 12.104C33.8963 12.104 33.4643 12.308 33.1883 12.716C32.9123 13.124 32.7743 13.646 32.7743 14.282C32.7743 14.906 32.9123 15.422 33.1883 15.83C33.4643 16.238 33.8963 16.442 34.4843 16.442C35.0843 16.442 35.5223 16.238 35.7983 15.83C36.0743 15.422 36.2123 14.894 36.2123 14.246C36.2123 13.634 36.0743 13.124 35.7983 12.716C35.5223 12.308 35.0843 12.104 34.4843 12.104ZM48.295 7.388C48.835 7.388 49.315 7.466 49.735 7.622C50.155 7.766 50.563 8.006 50.959 8.342L50.437 9.026C50.125 8.774 49.801 8.588 49.465 8.468C49.141 8.348 48.769 8.288 48.349 8.288C47.461 8.288 46.753 8.636 46.225 9.332C45.697 10.016 45.433 11.018 45.433 12.338C45.433 13.646 45.691 14.63 46.207 15.29C46.735 15.95 47.443 16.28 48.331 16.28C48.751 16.28 49.129 16.214 49.465 16.082C49.813 15.95 50.161 15.752 50.509 15.488L51.013 16.19C50.221 16.862 49.321 17.198 48.313 17.198C47.509 17.198 46.807 17.006 46.207 16.622C45.607 16.238 45.139 15.686 44.803 14.966C44.479 14.234 44.317 13.364 44.317 12.356C44.317 11.36 44.479 10.49 44.803 9.746C45.139 8.99 45.607 8.408 46.207 8C46.807 7.592 47.503 7.388 48.295 7.388ZM56.4517 7.388C57.6997 7.388 58.6717 7.82 59.3677 8.684C60.0757 9.536 60.4297 10.73 60.4297 12.266C60.4297 13.79 60.0697 14.996 59.3497 15.884C58.6417 16.76 57.6697 17.198 56.4337 17.198C55.1857 17.198 54.2077 16.766 53.4997 15.902C52.8037 15.026 52.4557 13.826 52.4557 12.302C52.4557 11.306 52.6177 10.436 52.9417 9.692C53.2657 8.948 53.7277 8.378 54.3277 7.982C54.9277 7.586 55.6357 7.388 56.4517 7.388ZM56.4517 8.27C55.5397 8.27 54.8317 8.612 54.3277 9.296C53.8237 9.98 53.5717 10.982 53.5717 12.302C53.5717 13.61 53.8177 14.606 54.3097 15.29C54.8137 15.974 55.5217 16.316 56.4337 16.316C57.3457 16.316 58.0537 15.974 58.5577 15.29C59.0737 14.606 59.3317 13.598 59.3317 12.266C59.3317 10.958 59.0797 9.968 58.5757 9.296C58.0837 8.612 57.3757 8.27 56.4517 8.27ZM66.7349 7.388C67.9829 7.388 68.9549 7.82 69.6509 8.684C70.3589 9.536 70.7129 10.73 70.7129 12.266C70.7129 13.79 70.3529 14.996 69.6329 15.884C68.9249 16.76 67.9529 17.198 66.7169 17.198C65.4689 17.198 64.4909 16.766 63.7829 15.902C63.0869 15.026 62.7389 13.826 62.7389 12.302C62.7389 11.306 62.9009 10.436 63.2249 9.692C63.5489 8.948 64.0109 8.378 64.6109 7.982C65.2109 7.586 65.9189 7.388 66.7349 7.388ZM66.7349 8.27C65.8229 8.27 65.1149 8.612 64.6109 9.296C64.1069 9.98 63.8549 10.982 63.8549 12.302C63.8549 13.61 64.1009 14.606 64.5929 15.29C65.0969 15.974 65.8049 16.316 66.7169 16.316C67.6289 16.316 68.3369 15.974 68.8409 15.29C69.3569 14.606 69.6149 13.598 69.6149 12.266C69.6149 10.958 69.3629 9.968 68.8589 9.296C68.3669 8.612 67.6589 8.27 66.7349 8.27ZM79.0991 7.586L78.9731 8.486H75.8411V17H74.7971V8.486H71.5571V7.586H79.0991ZM85.6082 11.888C86.3642 11.96 86.9402 12.188 87.3362 12.572C87.7442 12.956 87.9482 13.49 87.9482 14.174C87.9482 15.098 87.6002 15.8 86.9042 16.28C86.2202 16.76 85.2902 17 84.1142 17H81.1082V7.694C82.1042 7.49 83.0582 7.388 83.9702 7.388C85.0622 7.388 85.9082 7.616 86.5082 8.072C87.1202 8.516 87.4262 9.122 87.4262 9.89C87.4262 10.43 87.2642 10.874 86.9402 11.222C86.6282 11.57 86.1842 11.792 85.6082 11.888ZM83.9882 8.234C83.3762 8.234 82.7642 8.282 82.1522 8.378V11.564H84.3842C85.0082 11.564 85.4942 11.426 85.8422 11.15C86.1902 10.874 86.3642 10.46 86.3642 9.908C86.3642 8.792 85.5722 8.234 83.9882 8.234ZM84.1142 16.154C84.9542 16.154 85.6202 15.998 86.1122 15.686C86.6042 15.374 86.8502 14.87 86.8502 14.174C86.8502 13.562 86.6522 13.112 86.2562 12.824C85.8722 12.524 85.2722 12.374 84.4562 12.374H82.1522V16.154H84.1142ZM97.6475 11.942C97.6475 12.206 97.6355 12.458 97.6115 12.698H91.3295C91.3895 13.922 91.6775 14.834 92.1935 15.434C92.7215 16.022 93.4115 16.316 94.2635 16.316C94.7555 16.316 95.1875 16.244 95.5595 16.1C95.9435 15.944 96.3575 15.704 96.8015 15.38L97.2875 16.046C96.8195 16.43 96.3395 16.718 95.8475 16.91C95.3555 17.102 94.8095 17.198 94.2095 17.198C92.9615 17.198 91.9835 16.772 91.2755 15.92C90.5675 15.068 90.2135 13.886 90.2135 12.374C90.2135 11.378 90.3635 10.508 90.6635 9.764C90.9755 9.008 91.4135 8.426 91.9775 8.018C92.5535 7.598 93.2195 7.388 93.9755 7.388C95.1755 7.388 96.0875 7.796 96.7115 8.612C97.3355 9.416 97.6475 10.526 97.6475 11.942ZM96.6215 11.618C96.6215 10.562 96.3995 9.74 95.9555 9.152C95.5235 8.552 94.8755 8.252 94.0115 8.252C93.2315 8.252 92.6015 8.552 92.1215 9.152C91.6415 9.752 91.3775 10.664 91.3295 11.888H96.6215V11.618ZM105.941 7.586L105.815 8.486H102.683V17H101.639V8.486H98.3989V7.586H105.941ZM110.715 7.388C111.255 7.388 111.735 7.466 112.155 7.622C112.575 7.766 112.983 8.006 113.379 8.342L112.857 9.026C112.545 8.774 112.221 8.588 111.885 8.468C111.561 8.348 111.189 8.288 110.769 8.288C109.881 8.288 109.173 8.636 108.645 9.332C108.117 10.016 107.853 11.018 107.853 12.338C107.853 13.646 108.111 14.63 108.627 15.29C109.155 15.95 109.863 16.28 110.751 16.28C111.171 16.28 111.549 16.214 111.885 16.082C112.233 15.95 112.581 15.752 112.929 15.488L113.433 16.19C112.641 16.862 111.741 17.198 110.733 17.198C109.929 17.198 109.227 17.006 108.627 16.622C108.027 16.238 107.559 15.686 107.223 14.966C106.899 14.234 106.737 13.364 106.737 12.356C106.737 11.36 106.899 10.49 107.223 9.746C107.559 8.99 108.027 8.408 108.627 8C109.227 7.592 109.923 7.388 110.715 7.388ZM121.708 7.586L121.582 8.486H118.45V17H117.406V8.486H114.166V7.586H121.708ZM128.218 11.888C128.974 11.96 129.55 12.188 129.946 12.572C130.354 12.956 130.558 13.49 130.558 14.174C130.558 15.098 130.21 15.8 129.514 16.28C128.83 16.76 127.9 17 126.724 17H123.718V7.694C124.714 7.49 125.668 7.388 126.58 7.388C127.672 7.388 128.518 7.616 129.118 8.072C129.73 8.516 130.036 9.122 130.036 9.89C130.036 10.43 129.874 10.874 129.55 11.222C129.238 11.57 128.794 11.792 128.218 11.888ZM126.598 8.234C125.986 8.234 125.374 8.282 124.762 8.378V11.564H126.994C127.618 11.564 128.104 11.426 128.452 11.15C128.8 10.874 128.974 10.46 128.974 9.908C128.974 8.792 128.182 8.234 126.598 8.234ZM126.724 16.154C127.564 16.154 128.23 15.998 128.722 15.686C129.214 15.374 129.46 14.87 129.46 14.174C129.46 13.562 129.262 13.112 128.866 12.824C128.482 12.524 127.882 12.374 127.066 12.374H124.762V16.154H126.724ZM140.454 17H139.428V11.168C139.428 10.412 139.464 9.62 139.536 8.792L134.838 17H133.614V7.586H134.658V13.112C134.658 13.724 134.622 14.606 134.55 15.758L139.23 7.586H140.454V17ZM150.188 7.586V17H149.144V13.112H146.624L144.446 17H143.276L145.616 12.896C144.98 12.692 144.5 12.374 144.176 11.942C143.864 11.51 143.708 10.982 143.708 10.358C143.708 9.458 144.014 8.774 144.626 8.306C145.238 7.826 146.102 7.586 147.218 7.586H150.188ZM149.144 12.284V8.432H147.2C146.432 8.42 145.838 8.576 145.418 8.9C145.01 9.212 144.806 9.692 144.806 10.34C144.806 11.636 145.556 12.284 147.056 12.284H149.144Z" transform="translate(1 575)" fill="#1A1A1A"/>
    <g opacity="0.5">
        <path opacity="0.5" d="M159.325 0H0V41.8957H159.325V0Z" transform="translate(1.3374 416)" fill="#EFEFEF" stroke="#B5B5B5" stroke-miterlimit="10"/>
        <path opacity="0.5" d="M0 0L158.65 41.22" transform="translate(1.6748 416.338)" stroke="#B5B5B5" stroke-miterlimit="10"/>
        <path opacity="0.5" d="M158.65 0L0 41.22" transform="translate(1.6748 416.338)" stroke="#B5B5B5" stroke-miterlimit="10"/>
        <path opacity="0.5" d="M87.7637 0H0V47.3016H87.7637V0Z" transform="translate(1.3374 463.302)" fill="#EFEFEF" stroke="#B5B5B5" stroke-miterlimit="10"/>
        <path opacity="0.5" d="M0 0L87.0886 46.6259" transform="translate(1.6748 463.639)" stroke="#B5B5B5" stroke-miterlimit="10"/>
        <path opacity="0.5" d="M87.0886 0L0 46.6259" transform="translate(1.6748 463.639)" stroke="#B5B5B5" stroke-miterlimit="10"/>
        <path opacity="0.5" d="M64.8101 0H0V101.361H64.8101V0Z" transform="translate(95.8521 463.302)" fill="#EFEFEF" stroke="#B5B5B5" stroke-miterlimit="10"/>
        <path opacity="0.5" d="M64.135 0L0 100.685" transform="translate(96.1895 463.639)" stroke="#B5B5B5" stroke-miterlimit="10"/>
        <path opacity="0.5" d="M0 0L64.135 100.685" transform="translate(96.1895 463.639)" stroke="#B5B5B5" stroke-miterlimit="10"/>
        <path opacity="0.5" d="M87.7637 0H0V47.3016H87.7637V0Z" transform="translate(1.3374 517.36)" fill="#EFEFEF" stroke="#B5B5B5" stroke-miterlimit="10"/>
        <path opacity="0.5" d="M0 0L87.0886 46.6259" transform="translate(1.6748 517.698)" stroke="#B5B5B5" stroke-miterlimit="10"/>
        <path opacity="0.5" d="M87.0886 0L0 46.6259" transform="translate(1.6748 517.698)" stroke="#B5B5B5" stroke-miterlimit="10"/>
    </g>
    <path d="M159.325 0H0V32.4354H159.325V0Z" transform="translate(1.3374 416)" fill="#EFEFEF" stroke="#B5B5B5" stroke-miterlimit="10"/>
    <path d="M0 0L158.65 31.7596" transform="translate(1.67529 416.338)" stroke="#B5B5B5" stroke-miterlimit="10"/>
    <path d="M158.65 0L0 31.7596" transform="translate(1.67529 416.338)" stroke="#B5B5B5" stroke-miterlimit="10"/>
    <path d="M97.8903 0H0V47.3016H97.8903V0Z" transform="translate(1.3374 463.302)" fill="#EFEFEF" stroke="#B5B5B5" stroke-miterlimit="10"/>
    <path d="M0 0L97.2152 46.6259" transform="translate(1.67529 463.639)" stroke="#B5B5B5" stroke-miterlimit="10"/>
    <path d="M97.2152 0L0 46.6259" transform="translate(1.67529 463.639)" stroke="#B5B5B5" stroke-miterlimit="10"/>
    <path d="M51.308 0H0V101.361H51.308V0Z" transform="translate(109.354 463.302)" fill="#EFEFEF" stroke="#B5B5B5" stroke-miterlimit="10"/>
    <path d="M50.6329 0L0 100.685" transform="translate(109.692 463.639)" stroke="#B5B5B5" stroke-miterlimit="10"/>
    <path d="M0 0L50.6329 100.685" transform="translate(109.692 463.639)" stroke="#B5B5B5" stroke-miterlimit="10"/>
    <path d="M97.8903 0H0V47.3016H97.8903V0Z" transform="translate(1.3374 517.36)" fill="#EFEFEF" stroke="#B5B5B5" stroke-miterlimit="10"/>
    <path d="M0 0L97.2152 46.6259" transform="translate(1.67529 517.698)" stroke="#B5B5B5" stroke-miterlimit="10"/>
    <path d="M97.2152 0L0 46.6259" transform="translate(1.67529 517.698)" stroke="#B5B5B5" stroke-miterlimit="10"/>
    <path opacity="0.8" d="M160 0H0V9.79819H160V0Z" transform="translate(1 448.435)" fill="#D81D1D"/>
    <path opacity="0.8" d="M13.5021 0H0V102.036H13.5021V0Z" transform="translate(95.8525 462.964)" fill="#D81D1D"/>
    <path opacity="0.8" d="M10.1266 0H0V47.9773H10.1266V0Z" transform="translate(89.1011 462.964)" fill="#D81D1D"/>
    <path opacity="0.8" d="M10.1266 0H0V47.9773H10.1266V0Z" transform="translate(89.1011 517.022)" fill="#D81D1D"/>
</svg>
