<svg width="28" height="28" viewBox="0 0 28 28" fill="none" xmlns="http://www.w3.org/2000/svg">
    <path opacity="0.3" d="M14 0C6.2685 0 0 6.2685 0 14C0 21.7315 6.2685 28 14 28C21.7315 28 28 21.7315 28 14C28 6.2685 21.7315 0 14 0ZM14 21.2917C13.195 21.2917 12.5417 20.6383 12.5417 19.8333C12.5417 19.0283 13.195 18.375 14 18.375C14.8062 18.375 15.4583 19.0283 15.4583 19.8333C15.4583 20.6383 14.8062 21.2917 14 21.2917ZM16.2878 14.3757C15.2332 15.5132 15.183 16.142 15.197 16.9167H12.8578C12.8497 15.1958 12.8812 14.4375 14.5273 12.8707C15.1958 12.236 15.7232 11.7332 15.6497 10.7462C15.582 9.807 14.798 9.31583 14.0572 9.31583C13.23 9.31583 12.2628 9.93067 12.2628 11.6643H9.91783C9.91783 8.86433 11.5617 7.056 14.1062 7.056C15.3148 7.056 16.3718 7.4515 17.0812 8.17017C17.7462 8.8445 18.0903 9.77083 18.0775 10.8512C18.0588 12.4647 17.0777 13.524 16.2878 14.3757Z" fill="#1A1A1A"/>
</svg>
