<svg width="157" height="104" viewBox="0 0 157 104" fill="none" xmlns="http://www.w3.org/2000/svg">
    <path d="M97.7692 78H0V0H126.186V44" transform="translate(1 1)" stroke="#3770DD" stroke-width="2" stroke-miterlimit="10"/>
    <path d="M91.4103 8H0V0" transform="translate(9.94232 79)" stroke="#3770DD" stroke-width="2" stroke-miterlimit="10"/>
    <path d="M0 0H6.95513V34" transform="translate(127.186 12)" stroke="#3770DD" stroke-width="2" stroke-miterlimit="10"/>
    <path d="M85.4487 7H0V0" transform="translate(20.8718 87)" stroke="#3770DD" stroke-width="2" stroke-miterlimit="10"/>
    <path d="M0 0H6.95513V26" transform="translate(134.141 23)" stroke="#3770DD" stroke-width="2" stroke-miterlimit="10"/>
    <path d="M95.3846 0H0V22H95.3846V0Z" transform="translate(15.9039 13)" stroke="#3770DD" stroke-width="2" stroke-miterlimit="10"/>
    <path d="M21.859 0H0V22H21.859V0Z" transform="translate(15.9039 43)" stroke="#3770DD" stroke-width="2" stroke-miterlimit="10"/>
    <path d="M49.6795 9C54.6474 14.2 57.6282 21.2 57.6282 29C57.6282 45 44.7115 58 28.8141 58C12.9167 58 0 45 0 29C0 13 12.9167 0 28.8141 0C37.0609 0 44.4135 3.5 49.6795 9Z" transform="translate(98.3718 45)" stroke="#3770DD" stroke-width="2" stroke-miterlimit="10"/>
    <path d="M0 6.4L9.9359 14L29.8077 0" transform="translate(114.269 63)" stroke="#3770DD" stroke-width="2" stroke-miterlimit="10"/>
    <path d="M0 0H60.609" transform="translate(46.7051 44)" stroke="#3770DD" stroke-width="2" stroke-miterlimit="10"/>
    <path d="M0 0H52.6603" transform="translate(46.7051 51)" stroke="#3770DD" stroke-width="2" stroke-miterlimit="10"/>
    <path d="M0 0H47.6923" transform="translate(46.7051 58)" stroke="#3770DD" stroke-width="2" stroke-miterlimit="10"/>
    <path d="M0 0H44.7115" transform="translate(46.7051 65)" stroke="#3770DD" stroke-width="2" stroke-miterlimit="10"/>
</svg>
