<svg width="13" height="16" viewBox="0 0 13 16" fill="none" xmlns="http://www.w3.org/2000/svg">
    <path d="M0.65 4V16H12.35V4H0.65ZM3.9 13.3333C3.9 13.7013 3.6088 14 3.25 14C2.8912 14 2.6 13.7013 2.6 13.3333V6.66667C2.6 6.29867 2.8912 6 3.25 6C3.6088 6 3.9 6.29867 3.9 6.66667V13.3333ZM7.15 13.3333C7.15 13.7013 6.8588 14 6.5 14C6.1412 14 5.85 13.7013 5.85 13.3333V6.66667C5.85 6.29867 6.1412 6 6.5 6C6.8588 6 7.15 6.29867 7.15 6.66667V13.3333ZM10.4 13.3333C10.4 13.7013 10.1088 14 9.75 14C9.3912 14 9.1 13.7013 9.1 13.3333V6.66667C9.1 6.29867 9.3912 6 9.75 6C10.1088 6 10.4 6.29867 10.4 6.66667V13.3333ZM13 1.33333V2.66667H0V1.33333H3.71215C4.29715 1.33333 4.7723 0.600667 4.7723 0H8.22705C8.22705 0.600667 8.70155 1.33333 9.2872 1.33333H13Z" fill="#1A1A1A"/>
</svg>
