<svg width="514" height="169" viewBox="0 0 514 169" fill="none" xmlns="http://www.w3.org/2000/svg">
    <path opacity="0.5" d="M58.0403 3.303V12H56.8443V4.577L54.8163 5.812L54.2963 4.967L56.9873 3.303H58.0403ZM67.7548 8.282C68.9161 8.39467 69.4968 8.932 69.4968 9.894C69.4968 10.6133 69.2324 11.1463 68.7038 11.493C68.1838 11.831 67.4861 12 66.6108 12H64.1408V5.24C64.9468 5.07533 65.6964 4.993 66.3898 4.993C67.2391 4.993 67.9108 5.15333 68.4048 5.474C68.8988 5.79467 69.1458 6.254 69.1458 6.852C69.1458 7.242 69.0288 7.55833 68.7948 7.801C68.5608 8.04367 68.2141 8.204 67.7548 8.282ZM66.4028 5.916C66.0388 5.916 65.6834 5.942 65.3368 5.994V7.931H66.6238C67.0398 7.931 67.3604 7.853 67.5858 7.697C67.8111 7.541 67.9238 7.27667 67.9238 6.904C67.9238 6.55733 67.7981 6.306 67.5468 6.15C67.2954 5.994 66.9141 5.916 66.4028 5.916ZM66.6108 11.064C67.1221 11.064 67.5208 10.9773 67.8068 10.804C68.0928 10.6307 68.2358 10.3187 68.2358 9.868C68.2358 9.49533 68.1144 9.22667 67.8718 9.062C67.6291 8.89733 67.2174 8.815 66.6368 8.815H65.3368V11.064H66.6108ZM76.6019 8.373C76.6019 8.57233 76.5932 8.776 76.5759 8.984H72.2079C72.2599 9.738 72.4505 10.2927 72.7799 10.648C73.1092 11.0033 73.5339 11.181 74.0539 11.181C74.3832 11.181 74.6865 11.1333 74.9639 11.038C75.2412 10.9427 75.5315 10.791 75.8349 10.583L76.3549 11.298C75.6269 11.87 74.8295 12.156 73.9629 12.156C73.0095 12.156 72.2642 11.844 71.7269 11.22C71.1982 10.596 70.9339 9.738 70.9339 8.646C70.9339 7.93533 71.0465 7.307 71.2719 6.761C71.5059 6.20633 71.8352 5.773 72.2599 5.461C72.6932 5.149 73.2002 4.993 73.7809 4.993C74.6909 4.993 75.3885 5.292 75.8739 5.89C76.3592 6.488 76.6019 7.31567 76.6019 8.373ZM75.4189 8.022C75.4189 7.346 75.2845 6.83033 75.0159 6.475C74.7472 6.11967 74.3442 5.942 73.8069 5.942C72.8275 5.942 72.2945 6.66133 72.2079 8.1H75.4189V8.022ZM81.6579 4.993C82.5332 4.993 83.1745 5.305 83.5819 5.929C83.9892 6.553 84.1929 7.43267 84.1929 8.568C84.1929 9.64267 83.9589 10.5093 83.4909 11.168C83.0229 11.8267 82.3599 12.156 81.5019 12.156C80.7392 12.156 80.1412 11.896 79.7079 11.376V14.626L78.5119 14.769V5.149H79.5389L79.6299 6.072C79.8812 5.72533 80.1845 5.461 80.5399 5.279C80.8952 5.08833 81.2679 4.993 81.6579 4.993ZM81.2159 11.181C82.3425 11.181 82.9059 10.31 82.9059 8.568C82.9059 6.81733 82.3902 5.942 81.3589 5.942C81.0209 5.942 80.7132 6.04167 80.4359 6.241C80.1585 6.44033 79.9159 6.696 79.7079 7.008V10.349C79.8812 10.6177 80.0979 10.8257 80.3579 10.973C80.6179 11.1117 80.9039 11.181 81.2159 11.181ZM88.7266 4.993C89.1339 4.993 89.5066 5.05367 89.8446 5.175C90.1826 5.28767 90.5076 5.474 90.8196 5.734L90.2476 6.488C90.0049 6.31467 89.7666 6.189 89.5326 6.111C89.3073 6.02433 89.0559 5.981 88.7786 5.981C88.2239 5.981 87.7906 6.202 87.4786 6.644C87.1753 7.086 87.0236 7.74033 87.0236 8.607C87.0236 9.47367 87.1753 10.115 87.4786 10.531C87.7819 10.9383 88.2153 11.142 88.7786 11.142C89.0473 11.142 89.2943 11.103 89.5196 11.025C89.7449 10.9383 89.9963 10.804 90.2736 10.622L90.8196 11.402C90.1956 11.9047 89.4979 12.156 88.7266 12.156C87.7993 12.156 87.0669 11.844 86.5296 11.22C86.0009 10.596 85.7366 9.73367 85.7366 8.633C85.7366 7.905 85.8579 7.268 86.1006 6.722C86.3433 6.176 86.6856 5.75133 87.1276 5.448C87.5783 5.14467 88.1113 4.993 88.7266 4.993ZM97.7686 12H96.5856V8.906C96.5856 8.386 96.6029 7.892 96.6376 7.424C96.6723 6.956 96.7026 6.64833 96.7286 6.501L93.8556 12H92.4386V5.149H93.6216V8.243C93.6216 8.70233 93.6043 9.179 93.5696 9.673C93.5349 10.1583 93.5089 10.4703 93.4916 10.609L96.3256 5.149H97.7686V12ZM104.927 5.149V12H103.731V9.374H102.236L100.793 12H99.4535L101.092 9.101C100.286 8.71967 99.8825 8.1 99.8825 7.242C99.8825 6.566 100.125 6.05033 100.611 5.695C101.096 5.331 101.776 5.149 102.652 5.149H104.927ZM103.731 8.464V6.072H102.626C102.132 6.072 101.759 6.16733 101.508 6.358C101.265 6.54 101.144 6.83467 101.144 7.242C101.144 7.67533 101.256 7.98733 101.482 8.178C101.716 8.36867 102.088 8.464 102.6 8.464H103.731Z" transform="translate(1 -3)" fill="#1A1A1A"/>
    <path opacity="0.5" d="M56.3991 3.173C56.9191 3.173 57.3741 3.277 57.7641 3.485C58.1627 3.693 58.4704 3.979 58.6871 4.343C58.9037 4.69833 59.0121 5.10133 59.0121 5.552C59.0121 6.08067 58.8907 6.58767 58.6481 7.073C58.4141 7.55833 58.0501 8.08267 57.5561 8.646C57.0621 9.20933 56.3124 9.99367 55.3071 10.999H59.2201L59.0771 12H53.9421V11.051C55.1034 9.84633 55.9267 8.96667 56.4121 8.412C56.8974 7.84867 57.2441 7.359 57.4521 6.943C57.6601 6.527 57.7641 6.08067 57.7641 5.604C57.7641 5.15333 57.6341 4.80233 57.3741 4.551C57.1141 4.291 56.7674 4.161 56.3341 4.161C55.9787 4.161 55.6667 4.23467 55.3981 4.382C55.1294 4.52933 54.8434 4.772 54.5401 5.11L53.7601 4.486C54.1154 4.044 54.5097 3.71467 54.9431 3.498C55.3764 3.28133 55.8617 3.173 56.3991 3.173ZM68.161 8.282C69.3223 8.39467 69.903 8.932 69.903 9.894C69.903 10.6133 69.6387 11.1463 69.11 11.493C68.59 11.831 67.8923 12 67.017 12H64.547V5.24C65.353 5.07533 66.1027 4.993 66.796 4.993C67.6453 4.993 68.317 5.15333 68.811 5.474C69.305 5.79467 69.552 6.254 69.552 6.852C69.552 7.242 69.435 7.55833 69.201 7.801C68.967 8.04367 68.6203 8.204 68.161 8.282ZM66.809 5.916C66.445 5.916 66.0897 5.942 65.743 5.994V7.931H67.03C67.446 7.931 67.7667 7.853 67.992 7.697C68.2173 7.541 68.33 7.27667 68.33 6.904C68.33 6.55733 68.2043 6.306 67.953 6.15C67.7017 5.994 67.3203 5.916 66.809 5.916ZM67.017 11.064C67.5283 11.064 67.927 10.9773 68.213 10.804C68.499 10.6307 68.642 10.3187 68.642 9.868C68.642 9.49533 68.5207 9.22667 68.278 9.062C68.0353 8.89733 67.6237 8.815 67.043 8.815H65.743V11.064H67.017ZM77.0081 8.373C77.0081 8.57233 76.9995 8.776 76.9821 8.984H72.6141C72.6661 9.738 72.8568 10.2927 73.1861 10.648C73.5155 11.0033 73.9401 11.181 74.4601 11.181C74.7895 11.181 75.0928 11.1333 75.3701 11.038C75.6475 10.9427 75.9378 10.791 76.2411 10.583L76.7611 11.298C76.0331 11.87 75.2358 12.156 74.3691 12.156C73.4158 12.156 72.6705 11.844 72.1331 11.22C71.6045 10.596 71.3401 9.738 71.3401 8.646C71.3401 7.93533 71.4528 7.307 71.6781 6.761C71.9121 6.20633 72.2415 5.773 72.6661 5.461C73.0995 5.149 73.6065 4.993 74.1871 4.993C75.0971 4.993 75.7948 5.292 76.2801 5.89C76.7655 6.488 77.0081 7.31567 77.0081 8.373ZM75.8251 8.022C75.8251 7.346 75.6908 6.83033 75.4221 6.475C75.1535 6.11967 74.7505 5.942 74.2131 5.942C73.2338 5.942 72.7008 6.66133 72.6141 8.1H75.8251V8.022ZM82.0641 4.993C82.9394 4.993 83.5808 5.305 83.9881 5.929C84.3954 6.553 84.5991 7.43267 84.5991 8.568C84.5991 9.64267 84.3651 10.5093 83.8971 11.168C83.4291 11.8267 82.7661 12.156 81.9081 12.156C81.1454 12.156 80.5474 11.896 80.1141 11.376V14.626L78.9181 14.769V5.149H79.9451L80.0361 6.072C80.2874 5.72533 80.5908 5.461 80.9461 5.279C81.3014 5.08833 81.6741 4.993 82.0641 4.993ZM81.6221 11.181C82.7488 11.181 83.3121 10.31 83.3121 8.568C83.3121 6.81733 82.7964 5.942 81.7651 5.942C81.4271 5.942 81.1194 6.04167 80.8421 6.241C80.5648 6.44033 80.3221 6.696 80.1141 7.008V10.349C80.2874 10.6177 80.5041 10.8257 80.7641 10.973C81.0241 11.1117 81.3101 11.181 81.6221 11.181ZM89.1329 4.993C89.5402 4.993 89.9129 5.05367 90.2509 5.175C90.5889 5.28767 90.9139 5.474 91.2259 5.734L90.6539 6.488C90.4112 6.31467 90.1729 6.189 89.9389 6.111C89.7135 6.02433 89.4622 5.981 89.1849 5.981C88.6302 5.981 88.1969 6.202 87.8849 6.644C87.5815 7.086 87.4299 7.74033 87.4299 8.607C87.4299 9.47367 87.5815 10.115 87.8849 10.531C88.1882 10.9383 88.6215 11.142 89.1849 11.142C89.4535 11.142 89.7005 11.103 89.9259 11.025C90.1512 10.9383 90.4025 10.804 90.6799 10.622L91.2259 11.402C90.6019 11.9047 89.9042 12.156 89.1329 12.156C88.2055 12.156 87.4732 11.844 86.9359 11.22C86.4072 10.596 86.1429 9.73367 86.1429 8.633C86.1429 7.905 86.2642 7.268 86.5069 6.722C86.7495 6.176 87.0919 5.75133 87.5339 5.448C87.9845 5.14467 88.5175 4.993 89.1329 4.993ZM98.1749 12H96.9919V8.906C96.9919 8.386 97.0092 7.892 97.0439 7.424C97.0785 6.956 97.1089 6.64833 97.1349 6.501L94.2619 12H92.8449V5.149H94.0279V8.243C94.0279 8.70233 94.0105 9.179 93.9759 9.673C93.9412 10.1583 93.9152 10.4703 93.8979 10.609L96.7319 5.149H98.1749V12ZM105.333 5.149V12H104.137V9.374H102.642L101.199 12H99.8598L101.498 9.101C100.692 8.71967 100.289 8.1 100.289 7.242C100.289 6.566 100.531 6.05033 101.017 5.695C101.502 5.331 102.182 5.149 103.058 5.149H105.333ZM104.137 8.464V6.072H103.032C102.538 6.072 102.165 6.16733 101.914 6.358C101.671 6.54 101.55 6.83467 101.55 7.242C101.55 7.67533 101.662 7.98733 101.888 8.178C102.122 8.36867 102.494 8.464 103.006 8.464H104.137Z" transform="translate(177 -3)" fill="#1A1A1A"/>
    <path opacity="0.5" d="M62.1376 12H60.9026V7.632C60.9026 6.618 60.9589 5.54767 61.0716 4.421L57.4446 12H55.8586V3.043H57.0936V7.411C57.0936 8.62433 57.0373 9.70767 56.9246 10.661L60.5906 3.043H62.1376V12ZM67.1636 4.993C67.571 4.993 67.9436 5.05367 68.2816 5.175C68.6196 5.28767 68.9446 5.474 69.2566 5.734L68.6846 6.488C68.442 6.31467 68.2036 6.189 67.9696 6.111C67.7443 6.02433 67.493 5.981 67.2156 5.981C66.661 5.981 66.2276 6.202 65.9156 6.644C65.6123 7.086 65.4606 7.74033 65.4606 8.607C65.4606 9.47367 65.6123 10.115 65.9156 10.531C66.219 10.9383 66.6523 11.142 67.2156 11.142C67.4843 11.142 67.7313 11.103 67.9566 11.025C68.182 10.9383 68.4333 10.804 68.7106 10.622L69.2566 11.402C68.6326 11.9047 67.935 12.156 67.1636 12.156C66.2363 12.156 65.504 11.844 64.9666 11.22C64.438 10.596 64.1736 9.73367 64.1736 8.633C64.1736 7.905 64.295 7.268 64.5376 6.722C64.7803 6.176 65.1226 5.75133 65.5646 5.448C66.0153 5.14467 66.5483 4.993 67.1636 4.993ZM75.5036 5.149L75.3606 6.124H73.1636V12H71.9676V6.124H69.7056V5.149H75.5036ZM78.9848 4.993C79.9468 4.993 80.6921 5.31367 81.2208 5.955C81.7581 6.59633 82.0268 7.46733 82.0268 8.568C82.0268 9.27867 81.9054 9.907 81.6628 10.453C81.4201 10.9903 81.0691 11.4107 80.6098 11.714C80.1504 12.0087 79.6044 12.156 78.9718 12.156C78.0098 12.156 77.2601 11.8353 76.7228 11.194C76.1854 10.5527 75.9168 9.68167 75.9168 8.581C75.9168 7.87033 76.0381 7.24633 76.2808 6.709C76.5234 6.163 76.8744 5.74267 77.3338 5.448C77.7931 5.14467 78.3434 4.993 78.9848 4.993ZM78.9848 5.955C77.7974 5.955 77.2038 6.83033 77.2038 8.581C77.2038 10.323 77.7931 11.194 78.9718 11.194C80.1504 11.194 80.7398 10.3187 80.7398 8.568C80.7398 6.826 80.1548 5.955 78.9848 5.955ZM87.1486 4.993C88.0239 4.993 88.6652 5.305 89.0726 5.929C89.4799 6.553 89.6836 7.43267 89.6836 8.568C89.6836 9.64267 89.4496 10.5093 88.9816 11.168C88.5136 11.8267 87.8506 12.156 86.9926 12.156C86.2299 12.156 85.6319 11.896 85.1986 11.376V14.626L84.0026 14.769V5.149H85.0296L85.1206 6.072C85.3719 5.72533 85.6752 5.461 86.0306 5.279C86.3859 5.08833 86.7586 4.993 87.1486 4.993ZM86.7066 11.181C87.8332 11.181 88.3966 10.31 88.3966 8.568C88.3966 6.81733 87.8809 5.942 86.8496 5.942C86.5116 5.942 86.2039 6.04167 85.9266 6.241C85.6492 6.44033 85.4066 6.696 85.1986 7.008V10.349C85.3719 10.6177 85.5886 10.8257 85.8486 10.973C86.1086 11.1117 86.3946 11.181 86.7066 11.181ZM97.0513 12H95.8683V8.906C95.8683 8.386 95.8857 7.892 95.9203 7.424C95.955 6.956 95.9853 6.64833 96.0113 6.501L93.1383 12H91.7213V5.149H92.9043V8.243C92.9043 8.70233 92.887 9.179 92.8523 9.673C92.8177 10.1583 92.7917 10.4703 92.7743 10.609L95.6083 5.149H97.0513V12ZM104.209 5.149V12H103.013V9.374H101.518L100.075 12H98.7363L100.374 9.101C99.5683 8.71967 99.1653 8.1 99.1653 7.242C99.1653 6.566 99.4079 6.05033 99.8933 5.695C100.379 5.331 101.059 5.149 101.934 5.149H104.209ZM103.013 8.464V6.072H101.908C101.414 6.072 101.042 6.16733 100.79 6.358C100.548 6.54 100.426 6.83467 100.426 7.242C100.426 7.67533 100.539 7.98733 100.764 8.178C100.998 8.36867 101.371 8.464 101.882 8.464H103.013Z" transform="translate(353 -3)" fill="#1A1A1A"/>
    <path d="M160 0H0V41.9909H160V0Z" transform="translate(1 19)" fill="#EFEFEF" stroke="#B5B5B5" stroke-miterlimit="10"/>
    <path d="M0 0L159.322 41.3136" transform="translate(1.33899 19.3389)" stroke="#B5B5B5" stroke-miterlimit="10"/>
    <path d="M159.322 0L0 41.3136" transform="translate(1.33899 19.3389)" stroke="#B5B5B5" stroke-miterlimit="10"/>
    <path d="M88.1356 0H0V47.4091H88.1356V0Z" transform="translate(1 66.4092)" fill="#EFEFEF" stroke="#B5B5B5" stroke-miterlimit="10"/>
    <path d="M0 0L87.4576 46.7318" transform="translate(1.33899 66.7478)" stroke="#B5B5B5" stroke-miterlimit="10"/>
    <path d="M87.4576 0L0 46.7318" transform="translate(1.33899 66.7478)" stroke="#B5B5B5" stroke-miterlimit="10"/>
    <path d="M65.0847 0H0V101.591H65.0847V0Z" transform="translate(95.9153 66.4092)" fill="#EFEFEF" stroke="#B5B5B5" stroke-miterlimit="10"/>
    <path d="M64.4068 0L0 100.914" transform="translate(96.2542 66.7478)" stroke="#B5B5B5" stroke-miterlimit="10"/>
    <path d="M0 0L64.4068 100.914" transform="translate(96.2542 66.7478)" stroke="#B5B5B5" stroke-miterlimit="10"/>
    <path d="M88.1356 0H0V47.4091H88.1356V0Z" transform="translate(1 120.591)" fill="#EFEFEF" stroke="#B5B5B5" stroke-miterlimit="10"/>
    <path d="M0 0L87.4576 46.7318" transform="translate(1.33899 120.93)" stroke="#B5B5B5" stroke-miterlimit="10"/>
    <path d="M87.4576 0L0 46.7318" transform="translate(1.33899 120.93)" stroke="#B5B5B5" stroke-miterlimit="10"/>
    <path d="M127.119 0H0V41.9909H127.119V0Z" transform="translate(177 19)" fill="#EFEFEF" stroke="#B5B5B5" stroke-miterlimit="10"/>
    <path d="M32.5424 0H0V41.9909H32.5424V0Z" transform="translate(304.119 19)" fill="#EFEFEF" stroke="#B5B5B5" stroke-miterlimit="10"/>
    <path d="M0 0L126.78 41.3136" transform="translate(177.339 19.3391)" stroke="#B5B5B5" stroke-miterlimit="10"/>
    <path d="M126.78 0L0 41.3136" transform="translate(177.339 19.3391)" stroke="#B5B5B5" stroke-miterlimit="10"/>
    <path d="M32.2034 0L0 41.3136" transform="translate(304.119 19.3391)" stroke="#B5B5B5" stroke-miterlimit="10"/>
    <path d="M0 0L32.2034 41.3136" transform="translate(304.119 19.3391)" stroke="#B5B5B5" stroke-miterlimit="10"/>
    <path d="M88.1356 0H0V47.4091H88.1356V0Z" transform="translate(177 66.4092)" fill="#EFEFEF" stroke="#B5B5B5" stroke-miterlimit="10"/>
    <path d="M0 0L87.4576 46.7318" transform="translate(177.339 66.7478)" stroke="#B5B5B5" stroke-miterlimit="10"/>
    <path d="M87.4576 0L0 46.7318" transform="translate(177.339 66.7478)" stroke="#B5B5B5" stroke-miterlimit="10"/>
    <path d="M65.0847 0H0V47.4091H65.0847V0Z" transform="translate(271.915 66.4092)" fill="#EFEFEF" stroke="#B5B5B5" stroke-miterlimit="10"/>
    <path d="M64.4068 0L0 47.0705" transform="translate(272.254 66.7478)" stroke="#B5B5B5" stroke-miterlimit="10"/>
    <path d="M0 0L64.4068 47.0705" transform="translate(272.254 66.7478)" stroke="#B5B5B5" stroke-miterlimit="10"/>
    <path d="M65.0847 0H0V47.4091H65.0847V0Z" transform="translate(271.915 120.591)" fill="#EFEFEF" stroke="#B5B5B5" stroke-miterlimit="10"/>
    <path d="M64.4068 0L0 47.0705" transform="translate(272.254 120.93)" stroke="#B5B5B5" stroke-miterlimit="10"/>
    <path d="M0 0L64.4068 47.0705" transform="translate(272.254 120.93)" stroke="#B5B5B5" stroke-miterlimit="10"/>
    <path d="M88.1356 0H0V47.4091H88.1356V0Z" transform="translate(177 120.591)" fill="#EFEFEF" stroke="#B5B5B5" stroke-miterlimit="10"/>
    <path d="M0 0L87.4576 46.7318" transform="translate(177.339 120.93)" stroke="#B5B5B5" stroke-miterlimit="10"/>
    <path d="M87.4576 0L0 46.7318" transform="translate(177.339 120.93)" stroke="#B5B5B5" stroke-miterlimit="10"/>
    <path d="M126.85 0H0V41.8957H126.85V0Z" transform="translate(353 19.3381)" fill="#EFEFEF" stroke="#B5B5B5" stroke-miterlimit="10"/>
    <path d="M32.4736 0H0V41.8957H32.4736V0Z" transform="translate(479.85 19.3381)" fill="#EFEFEF" stroke="#B5B5B5" stroke-miterlimit="10"/>
    <path d="M0 0L126.512 41.22" transform="translate(353.338 19.6765)" stroke="#B5B5B5" stroke-miterlimit="10"/>
    <path d="M126.512 0L0 41.22" transform="translate(353.338 19.6765)" stroke="#B5B5B5" stroke-miterlimit="10"/>
    <path d="M32.1353 0L0 41.22" transform="translate(479.85 19.6765)" stroke="#B5B5B5" stroke-miterlimit="10"/>
    <path d="M0 0L32.1353 41.22" transform="translate(479.85 19.6765)" stroke="#B5B5B5" stroke-miterlimit="10"/>
    <path d="M87.9493 0H0V47.3016H87.9493V0Z" transform="translate(353 66.6394)" fill="#EFEFEF" stroke="#B5B5B5" stroke-miterlimit="10"/>
    <path d="M0 0L87.2727 46.6259" transform="translate(353.338 66.9773)" stroke="#B5B5B5" stroke-miterlimit="10"/>
    <path d="M87.2727 0L0 46.6259" transform="translate(353.338 66.9773)" stroke="#B5B5B5" stroke-miterlimit="10"/>
    <path d="M64.9472 0H0V47.3016H64.9472V0Z" transform="translate(447.715 66.6394)" fill="#EFEFEF" stroke="#B5B5B5" stroke-miterlimit="10"/>
    <path d="M64.2706 0L0 46.9637" transform="translate(448.053 66.9773)" stroke="#B5B5B5" stroke-miterlimit="10"/>
    <path d="M0 0L64.2706 46.9637" transform="translate(448.053 66.9773)" stroke="#B5B5B5" stroke-miterlimit="10"/>
    <path d="M64.9472 0H0V47.3016H64.9472V0Z" transform="translate(447.715 120.698)" fill="#EFEFEF" stroke="#B5B5B5" stroke-miterlimit="10"/>
    <path d="M64.2706 0L0 46.9637" transform="translate(448.053 121.036)" stroke="#B5B5B5" stroke-miterlimit="10"/>
    <path d="M0 0L64.2706 46.9637" transform="translate(448.053 121.036)" stroke="#B5B5B5" stroke-miterlimit="10"/>
    <path d="M87.9493 0H0V47.3016H87.9493V0Z" transform="translate(353 120.698)" fill="#EFEFEF" stroke="#B5B5B5" stroke-miterlimit="10"/>
    <path d="M0 0L87.2727 46.6259" transform="translate(353.338 121.036)" stroke="#B5B5B5" stroke-miterlimit="10"/>
    <path d="M87.2727 0L0 46.6259" transform="translate(353.338 121.036)" stroke="#B5B5B5" stroke-miterlimit="10"/>
    <path opacity="0.8" d="M33.1501 0H0V42.5714H33.1501V0Z" transform="translate(479.512 19)" fill="#3770DD"/>
    <path opacity="0.8" d="M65.6237 0H0V47.9773H65.6237V0Z" transform="translate(447.376 66.3018)" fill="#3770DD"/>
</svg>
